<svg width="207" height="190" viewBox="0 0 207 190" fill="none" xmlns="http://www.w3.org/2000/svg">
<path d="M40.0409 189.213L5.49581 162.519C20.6747 146.817 30.8812 132.161 36.1153 118.553C41.8729 104.42 44.7516 90.2884 44.7516 76.1563L65.9498 92.6437H0V0H93.4288V63.5944C93.4288 87.1479 89.5032 109.131 81.6521 129.544C73.8009 149.434 59.9305 169.323 40.0409 189.213ZM152.932 189.213L118.387 162.519C133.566 146.817 143.772 132.161 149.007 118.553C154.764 104.42 157.643 90.2884 157.643 76.1563L178.841 92.6437H112.891V0H206.32V63.5944C206.32 87.1479 202.394 109.131 194.543 129.544C186.692 149.434 172.822 169.323 152.932 189.213Z" fill="#E9E9E9"/>
</svg>
