<svg width="57" height="53" viewBox="0 0 57 53" fill="none" xmlns="http://www.w3.org/2000/svg">
<path d="M38.3436 11.6191C39.7423 8.81369 42.6936 7.3866 45.815 7.88502C50.2611 8.59477 53.6174 12.3248 54.3505 16.6491C54.9985 20.4655 53.0535 24.0731 49.2576 25.1784C48.993 25.2556 48.4031 25.3351 47.4879 25.4168C47.4245 25.4232 47.3972 25.4578 47.4061 25.5206C49.7076 41.2018 33.6515 53.1812 19.3314 46.2867C9.64795 41.6261 5.68926 30.0403 10.0224 20.3277C10.3703 19.55 10.8453 18.7361 11.2799 17.9471C11.2853 17.9376 11.2886 17.9272 11.2896 17.9163C11.2905 17.9055 11.2892 17.8945 11.2856 17.8841C11.282 17.8738 11.2762 17.8642 11.2687 17.8561C11.2612 17.848 11.252 17.8415 11.2418 17.8371C8.27847 16.5786 6.55551 13.8876 6.88027 10.6415C7.45401 4.90226 14.1052 0.598822 19.6456 2.27338C22.132 3.02488 23.9273 4.71463 24.5979 7.24343C24.7326 7.74966 24.7662 8.31869 24.8013 8.87223C24.8063 8.93652 24.8408 8.96433 24.9047 8.95567C29.7007 8.32456 34.1246 9.11388 38.2598 11.6416C38.2959 11.6645 38.3238 11.657 38.3436 11.6191ZM21.4567 23.4587C21.6055 22.7587 21.4702 22.0283 21.0804 21.4282C20.6906 20.828 20.0784 20.4072 19.3785 20.2584C18.6785 20.1097 17.9481 20.245 17.3479 20.6348C16.7477 21.0245 16.327 21.6367 16.1782 22.3367C16.0294 23.0367 16.1648 23.7671 16.5545 24.3673C16.9443 24.9675 17.5565 25.3882 18.2565 25.537C18.9565 25.6858 19.6869 25.5504 20.287 25.1607C20.8872 24.7709 21.308 24.1587 21.4567 23.4587ZM41.744 27.8885C41.8993 27.1578 41.758 26.3953 41.3511 25.7688C40.9442 25.1423 40.3051 24.703 39.5744 24.5477C39.2126 24.4708 38.8392 24.4659 38.4755 24.5333C38.1117 24.6007 37.7649 24.7391 37.4547 24.9406C37.1444 25.142 36.8769 25.4026 36.6674 25.7075C36.4579 26.0123 36.3105 26.3555 36.2336 26.7173C36.1567 27.0791 36.1518 27.4525 36.2192 27.8162C36.2866 28.1799 36.425 28.5268 36.6264 28.837C36.8279 29.1472 37.0885 29.4147 37.3933 29.6243C37.6982 29.8338 38.0413 29.9812 38.4031 30.0581C39.1339 30.2134 39.8963 30.0721 40.5229 29.6652C41.1494 29.2584 41.5886 28.6193 41.744 27.8885ZM38.0205 40.5403C38.4803 38.377 37.6745 36.0374 35.7804 34.0361C33.8862 32.0348 31.0589 30.5356 27.9203 29.8685C24.7818 29.2014 21.5891 29.4209 19.0447 30.4788C16.5003 31.5367 14.8126 33.3463 14.3528 35.5095C13.893 37.6727 14.6988 40.0123 16.5929 42.0137C18.4871 44.015 21.3144 45.5141 24.453 46.1813C27.5915 46.8484 30.7841 46.6288 33.3286 45.5709C35.873 44.5131 37.5607 42.7035 38.0205 40.5403Z" fill="#787878"/>
<path d="M20.5547 23.8936C21.3545 24.0636 22.1407 23.553 22.3107 22.7532C22.4807 21.9534 21.9701 21.1673 21.1703 20.9973C20.3705 20.8273 19.5844 21.3378 19.4144 22.1376C19.2444 22.9374 19.7549 23.7236 20.5547 23.8936Z" fill="#787878"/>
<path d="M40.7158 28.175C41.5147 28.3448 42.3 27.8349 42.4698 27.036C42.6396 26.2371 42.1296 25.4519 41.3308 25.2821C40.5319 25.1123 39.7466 25.6222 39.5768 26.4211C39.407 27.22 39.917 28.0052 40.7158 28.175Z" fill="#787878"/>
<path d="M25.1889 41.3492L26.3102 36.0652C26.3224 36.0081 26.2997 35.9717 26.2422 35.9559C24.6933 35.5354 21.9837 34.2729 21.926 32.3221C21.9032 31.5535 22.774 30.8518 23.4427 30.5972C26.1504 29.5643 30.5059 30.411 32.4547 32.6426C33.6515 34.0173 32.9237 35.4587 31.3788 35.9696C30.2167 36.3536 29.0214 36.4478 27.7929 36.2522C27.7138 36.2389 27.6659 36.2714 27.6492 36.3498L26.5314 41.6416C26.5119 41.7334 26.5481 41.7862 26.64 41.7998C29.4612 42.2239 32.2379 41.5762 34.6665 40.1381C34.6736 40.1341 34.6814 40.1314 34.6895 40.1304C34.6976 40.1294 34.7058 40.13 34.7136 40.1321C34.7215 40.1343 34.7289 40.138 34.7353 40.143C34.7417 40.148 34.7471 40.1543 34.7511 40.1614L35.5766 41.6309C35.585 41.6464 35.5872 41.6644 35.5827 41.6812C35.5781 41.698 35.5672 41.7121 35.5522 41.7206C31.6004 43.9394 27.2298 44.4361 23.0757 42.5839C20.7135 41.5316 18.6742 39.927 16.9577 37.7699C16.9225 37.7262 16.9278 37.6875 16.9736 37.6539L18.2638 36.6973C18.3177 36.6584 18.3661 36.6652 18.4088 36.7175C20.0196 38.7052 22.5434 40.7184 25.0799 41.4156C25.1397 41.4318 25.176 41.4096 25.1889 41.3492Z" fill="#787878"/>
</svg>
