<svg width="45" height="45" viewBox="0 0 45 45" fill="none" xmlns="http://www.w3.org/2000/svg">
<rect width="45" height="45" rx="22.5" fill="#D62A76"/>
<path d="M22.5 12.1875C19.7014 12.1875 19.3495 12.2004 18.25 12.2494C17.1504 12.3009 16.4014 12.4737 15.7453 12.7289C15.0571 12.9878 14.4337 13.3938 13.9187 13.9187C13.3942 14.4339 12.9881 15.0573 12.7289 15.7453C12.4737 16.4002 12.2996 17.1504 12.2494 18.2461C12.2004 19.3482 12.1875 19.6989 12.1875 22.5013C12.1875 25.3011 12.2004 25.6518 12.2494 26.7513C12.3009 27.8496 12.4737 28.5986 12.7289 29.2547C12.9932 29.9327 13.3451 30.5077 13.9187 31.0813C14.4911 31.6549 15.066 32.0081 15.744 32.2711C16.4014 32.5263 17.1491 32.7004 18.2474 32.7506C19.3482 32.7996 19.6989 32.8125 22.5 32.8125C25.3011 32.8125 25.6505 32.7996 26.7513 32.7506C27.8483 32.6991 28.5998 32.5263 29.256 32.2711C29.9438 32.0121 30.5667 31.606 31.0813 31.0813C31.6549 30.5077 32.0068 29.9327 32.2711 29.2547C32.525 28.5986 32.6991 27.8496 32.7506 26.7513C32.7996 25.6518 32.8125 25.3011 32.8125 22.5C32.8125 19.6989 32.7996 19.3482 32.7506 18.2474C32.6991 17.1504 32.525 16.4002 32.2711 15.7453C32.0119 15.0572 31.6059 14.4339 31.0813 13.9187C30.5665 13.3936 29.943 12.9876 29.2547 12.7289C28.5973 12.4737 27.847 12.2996 26.75 12.2494C25.6492 12.2004 25.2998 12.1875 22.4974 12.1875H22.5013H22.5ZM21.5757 14.0463H22.5013C25.2547 14.0463 25.5809 14.0554 26.6675 14.1056C27.673 14.1507 28.2196 14.3196 28.5831 14.4601C29.0639 14.647 29.4081 14.8713 29.769 15.2323C30.13 15.5932 30.353 15.9361 30.5399 16.4182C30.6817 16.7804 30.8493 17.327 30.8944 18.3325C30.9446 19.4191 30.955 19.7453 30.955 22.4974C30.955 25.2496 30.9446 25.577 30.8944 26.6637C30.8493 27.6691 30.6804 28.2144 30.5399 28.5779C30.3745 29.0257 30.1107 29.4306 29.7677 29.7626C29.4068 30.1235 29.0639 30.3465 28.5818 30.5334C28.2209 30.6752 27.6743 30.8428 26.6675 30.8892C25.5809 30.9382 25.2547 30.9498 22.5013 30.9498C19.7479 30.9498 19.4204 30.9382 18.3338 30.8892C17.3283 30.8428 16.783 30.6752 16.4195 30.5334C15.9715 30.3683 15.5663 30.1049 15.2336 29.7626C14.8903 29.43 14.626 29.0248 14.4601 28.5766C14.3196 28.2144 14.1507 27.6679 14.1056 26.6624C14.0566 25.5757 14.0463 25.2496 14.0463 22.4948C14.0463 19.7414 14.0566 19.4166 14.1056 18.3299C14.152 17.3244 14.3196 16.7779 14.4614 16.4143C14.6483 15.9335 14.8726 15.5893 15.2336 15.2284C15.5945 14.8675 15.9374 14.6445 16.4195 14.4575C16.783 14.3157 17.3283 14.1482 18.3338 14.1018C19.2851 14.0579 19.6537 14.045 21.5757 14.0438V14.0463ZM28.0056 15.7582C27.8431 15.7582 27.6822 15.7902 27.532 15.8524C27.3819 15.9146 27.2455 16.0057 27.1305 16.1207C27.0156 16.2356 26.9245 16.372 26.8623 16.5221C26.8001 16.6723 26.7681 16.8332 26.7681 16.9957C26.7681 17.1582 26.8001 17.3191 26.8623 17.4693C26.9245 17.6194 27.0156 17.7558 27.1305 17.8707C27.2455 17.9857 27.3819 18.0768 27.532 18.139C27.6822 18.2012 27.8431 18.2332 28.0056 18.2332C28.3338 18.2332 28.6486 18.1028 28.8806 17.8707C29.1127 17.6387 29.2431 17.3239 29.2431 16.9957C29.2431 16.6675 29.1127 16.3527 28.8806 16.1207C28.6486 15.8886 28.3338 15.7582 28.0056 15.7582ZM22.5013 17.2045C21.7988 17.1936 21.1012 17.3225 20.4491 17.5837C19.7969 17.8449 19.2032 18.2333 18.7026 18.7262C18.202 19.219 17.8044 19.8066 17.533 20.4546C17.2617 21.1026 17.1219 21.7981 17.1219 22.5006C17.1219 23.2032 17.2617 23.8987 17.533 24.5467C17.8044 25.1947 18.202 25.7822 18.7026 26.2751C19.2032 26.768 19.7969 27.1564 20.4491 27.4176C21.1012 27.6788 21.7988 27.8077 22.5013 27.7968C23.8916 27.7751 25.2176 27.2075 26.1931 26.2167C27.1687 25.2258 27.7154 23.8911 27.7154 22.5006C27.7154 21.1102 27.1687 19.7755 26.1931 18.7846C25.2176 17.7937 23.8916 17.2262 22.5013 17.2045ZM22.5013 19.0621C23.4131 19.0621 24.2875 19.4243 24.9323 20.069C25.577 20.7138 25.9392 21.5882 25.9392 22.5C25.9392 23.4118 25.577 24.2862 24.9323 24.931C24.2875 25.5757 23.4131 25.9379 22.5013 25.9379C21.5895 25.9379 20.715 25.5757 20.0703 24.931C19.4256 24.2862 19.0634 23.4118 19.0634 22.5C19.0634 21.5882 19.4256 20.7138 20.0703 20.069C20.715 19.4243 21.5895 19.0621 22.5013 19.0621Z" fill="white"/>
</svg>
