<svg width="45" height="45" viewBox="0 0 45 45" fill="none" xmlns="http://www.w3.org/2000/svg">
<rect width="45" height="45" rx="22.5" fill="#0088CC"/>
<path fill-rule="evenodd" clip-rule="evenodd" d="M29.7907 15.4031C30.0224 15.3056 30.276 15.272 30.5251 15.3057C30.7741 15.3395 31.0096 15.4393 31.207 15.595C31.4044 15.7506 31.5564 15.9563 31.6473 16.1907C31.7382 16.425 31.7647 16.6794 31.7239 16.9275L29.5976 29.8247C29.3914 31.0687 28.0264 31.7822 26.8854 31.1625C25.931 30.644 24.5135 29.8453 23.2385 29.0118C22.601 28.5947 20.6482 27.2587 20.8882 26.3081C21.0945 25.4953 24.3757 22.4409 26.2507 20.625C26.9867 19.9115 26.651 19.5 25.782 20.1562C23.6229 21.7856 20.1589 24.2634 19.0132 24.9609C18.0026 25.5759 17.4757 25.6809 16.8457 25.5759C15.6964 25.3847 14.6304 25.0884 13.7604 24.7275C12.5848 24.24 12.642 22.6237 13.7595 22.1531L29.7907 15.4031Z" fill="white"/>
</svg>
