<svg width="45" height="45" viewBox="0 0 45 45" fill="none" xmlns="http://www.w3.org/2000/svg">
<rect width="45" height="45" rx="22.5" fill="#7C529D"/>
<g clip-path="url(#clip0_0_170)">
<path d="M21.5211 11.875C19.7146 11.9012 15.8333 12.1975 13.6649 14.1878C12.0542 15.8003 11.4861 18.1562 11.4271 21.0784C11.368 23.9997 11.2911 29.4775 16.5711 30.9625H16.5739L16.5702 33.2275C16.5702 33.2275 16.5355 34.1434 17.1421 34.3309C17.8705 34.5578 18.2989 33.8622 18.9983 33.1103C19.3799 32.6978 19.9096 32.0941 20.308 31.6291C23.9174 31.9347 26.6942 31.2391 27.0111 31.1369C27.7386 30.9006 31.8636 30.3719 32.5349 24.8959C33.2286 19.2522 32.1974 15.6803 30.3411 14.0716C29.7824 13.5559 27.523 11.9153 22.4896 11.8937C22.4896 11.8937 22.1192 11.8703 21.5174 11.8778L21.5211 11.875ZM21.5755 13.4622C22.0864 13.4584 22.4005 13.4781 22.4005 13.4781C26.6586 13.4969 28.6977 14.7794 29.1711 15.2087C30.7414 16.5541 31.543 19.7725 30.958 24.4872V24.4891C30.3917 29.0622 27.0449 29.3491 26.428 29.5469C26.1655 29.6312 23.7261 30.2378 20.6596 30.0381C20.6596 30.0381 18.3758 32.7944 17.6624 33.5106C17.5499 33.6231 17.4186 33.6672 17.3324 33.6456C17.2105 33.6147 17.1767 33.4694 17.1777 33.2575L17.1964 29.4906C12.7321 28.2531 12.9917 23.5919 13.0433 21.1516C13.0939 18.7103 13.5524 16.7097 14.9146 15.3644C16.7521 13.7022 20.0464 13.4725 21.5802 13.4612L21.5755 13.4622ZM21.9317 15.9016C21.8591 15.9052 21.7905 15.9366 21.7402 15.9891C21.6899 16.0417 21.6616 16.1115 21.6611 16.1843C21.6606 16.2571 21.688 16.3273 21.7376 16.3805C21.7872 16.4338 21.8554 16.466 21.928 16.4706C23.4505 16.48 24.6899 16.9741 25.7042 17.9631C26.7102 18.9437 27.223 20.2769 27.2352 22.0262C27.2371 22.1828 27.3664 22.3075 27.523 22.3075C27.5979 22.3065 27.6695 22.2761 27.7221 22.2227C27.7747 22.1694 27.8042 22.0974 27.8042 22.0225C27.7911 20.1625 27.2249 18.6512 26.1017 17.5562C24.9861 16.4687 23.5771 15.9128 21.9317 15.9016ZM18.2192 16.5531C18.0199 16.5255 17.8171 16.5641 17.6417 16.6628L17.6324 16.6647C17.2292 16.8962 16.8674 17.1916 16.558 17.5384C16.5561 17.5422 16.5524 17.5422 16.5505 17.5459C16.3002 17.8487 16.1567 18.1441 16.1192 18.4347C16.1119 18.478 16.1097 18.5221 16.1127 18.5659C16.1127 18.6934 16.1333 18.8191 16.1736 18.9409L16.1858 18.9503C16.3124 19.4003 16.6292 20.1466 17.3155 21.3916C17.7092 22.1116 18.1621 22.7978 18.6711 23.4409C18.9242 23.7634 19.1961 24.0719 19.4867 24.3634L19.6105 24.4872C19.9011 24.7759 20.2105 25.0497 20.533 25.3028C21.1766 25.812 21.8622 26.2658 22.5824 26.6594C23.8274 27.3466 24.5755 27.6625 25.0236 27.79L25.033 27.8031C25.1961 27.8564 25.3687 27.874 25.5392 27.8547C25.8299 27.8209 26.1271 27.6766 26.428 27.4234C26.4317 27.4234 26.4308 27.4216 26.4355 27.4187C26.7824 27.1094 27.0758 26.7437 27.3074 26.3425L27.3102 26.3331C27.5211 25.9281 27.4508 25.5437 27.1414 25.2831C27.1377 25.2831 26.4871 24.7394 26.1692 24.505C25.8317 24.2659 25.4849 24.0437 25.1258 23.8394C24.6477 23.5722 24.1583 23.74 23.9558 24.0025L23.5367 24.5312C23.3211 24.7966 22.9208 24.7619 22.9208 24.7619C19.9958 24.0156 19.213 21.0541 19.213 21.0541C19.213 21.0541 19.1783 20.6547 19.4455 20.4391L19.9733 20.0191C20.233 19.8175 20.4008 19.3281 20.1327 18.8491C19.9291 18.4893 19.7069 18.1404 19.4671 17.8037C19.2153 17.4743 18.9558 17.1508 18.6889 16.8334C18.5714 16.6862 18.4039 16.5872 18.2183 16.555L18.2192 16.5531ZM22.4286 17.3781C22.3533 17.3759 22.2801 17.4037 22.2253 17.4554C22.1704 17.507 22.1384 17.5784 22.1361 17.6537C22.1339 17.7291 22.1617 17.8022 22.2133 17.8571C22.265 17.9119 22.3364 17.944 22.4117 17.9462C23.4992 18.0259 24.3027 18.3831 24.8914 19.0244C25.4821 19.6694 25.7633 20.4531 25.7408 21.4337C25.7449 21.5058 25.776 21.5737 25.828 21.6239C25.8799 21.6741 25.9489 21.7028 26.0211 21.7043C26.0933 21.7058 26.1634 21.6801 26.2175 21.6322C26.2715 21.5843 26.3055 21.5178 26.3127 21.4459C26.3361 20.3444 25.9996 19.39 25.3124 18.6391C24.6186 17.8797 23.6464 17.4644 22.453 17.3772H22.4305L22.4286 17.3781ZM22.8627 18.9062C22.7905 18.9073 22.7214 18.9356 22.6692 18.9855C22.617 19.0354 22.5857 19.1032 22.5814 19.1753C22.5739 19.3319 22.6939 19.4659 22.8514 19.4753C23.3417 19.5016 23.6717 19.6394 23.8949 19.8709C24.1199 20.1006 24.2586 20.4522 24.2849 20.9622C24.2945 21.0329 24.3303 21.0974 24.3852 21.1429C24.4401 21.1885 24.5101 21.2118 24.5814 21.2083C24.6526 21.2047 24.7199 21.1746 24.7701 21.1238C24.8202 21.0731 24.8494 21.0054 24.8521 20.9341C24.8239 20.3303 24.6505 19.8297 24.3083 19.4744C23.9642 19.12 23.4711 18.9362 22.8833 18.9053H22.8664L22.8627 18.9062Z" fill="white"/>
</g>
<defs>
<clipPath id="clip0_0_170">
<rect width="22.5" height="22.5" fill="white" transform="translate(10.8335 11.875)"/>
</clipPath>
</defs>
</svg>
