<svg width="45" height="45" viewBox="0 0 45 45" fill="none" xmlns="http://www.w3.org/2000/svg">
<rect width="45" height="45" rx="22.5" fill="#0077FF"/>
<g clip-path="url(#clip0_0_173)">
<path fill-rule="evenodd" clip-rule="evenodd" d="M31.2774 25.0852C31.2774 25.0852 33.0965 26.8819 33.5465 27.7132C33.5552 27.7252 33.5621 27.7385 33.5667 27.7526C33.7501 28.0597 33.7951 28.3005 33.7051 28.4782C33.5532 28.7719 33.0391 28.9192 32.8647 28.9316H29.6495C29.4256 28.9316 28.9599 28.8731 28.3929 28.4816C27.9597 28.179 27.5289 27.6806 27.1115 27.1935C26.4882 26.4701 25.9494 25.8424 25.4037 25.8424C25.3348 25.8422 25.2664 25.8536 25.2012 25.8761C24.7884 26.0066 24.2641 26.595 24.2641 28.1621C24.2641 28.6526 23.8771 28.9316 23.606 28.9316H22.1334C21.6316 28.9316 19.0194 28.7561 16.703 26.3137C13.8646 23.3235 11.3154 17.325 11.2906 17.2721C11.132 16.884 11.465 16.6725 11.825 16.6725H15.0717C15.5071 16.6725 15.6489 16.9357 15.7479 17.172C15.8626 17.4431 16.2879 18.5276 16.9854 19.746C18.1149 21.7282 18.809 22.5349 19.3636 22.5349C19.4678 22.5352 19.5702 22.508 19.6606 22.4561C20.3851 22.0579 20.2501 19.4704 20.2164 18.9371C20.2164 18.8336 20.2152 17.7817 19.844 17.2732C19.5785 16.9087 19.1262 16.767 18.8529 16.7152C18.926 16.6095 19.0812 16.4475 19.2804 16.3519C19.7765 16.1044 20.6731 16.0684 21.563 16.0684H22.0569C23.0221 16.0819 23.2719 16.1437 23.6229 16.2326C24.3294 16.4014 24.3429 16.8592 24.281 18.4185C24.263 18.864 24.2439 19.3657 24.2439 19.9564C24.2439 20.0824 24.2382 20.223 24.2382 20.3659C24.2169 21.1657 24.1887 22.0669 24.7535 22.437C24.8267 22.4826 24.9113 22.5068 24.9976 22.5067C25.1934 22.5067 25.7795 22.5067 27.3691 19.7786C28.0666 18.5737 28.6066 17.1529 28.6437 17.046C28.6752 16.9864 28.7697 16.8187 28.8845 16.7512C28.9661 16.7078 29.0575 16.6861 29.15 16.6882H32.9694C33.3856 16.6882 33.668 16.7512 33.7231 16.9087C33.8154 17.1641 33.7051 17.9437 31.9614 20.3017C31.6677 20.6944 31.4101 21.0341 31.184 21.3311C29.6034 23.4056 29.6034 23.5102 31.2774 25.0852Z" fill="white"/>
</g>
<defs>
<clipPath id="clip0_0_173">
<rect width="22.5" height="22.5" fill="white" transform="translate(11.25 11.25)"/>
</clipPath>
</defs>
</svg>
