<svg width="45" height="45" viewBox="0 0 45 45" fill="none" xmlns="http://www.w3.org/2000/svg">
<rect width="45" height="45" rx="22.5" fill="#FF0000"/>
<path d="M20.625 25.3125L25.4906 22.5L20.625 19.6875V25.3125ZM31.4625 17.9719C31.5844 18.4125 31.6688 19.0031 31.725 19.7531C31.7906 20.5031 31.8188 21.15 31.8188 21.7125L31.875 22.5C31.875 24.5531 31.725 26.0625 31.4625 27.0281C31.2281 27.8719 30.6844 28.4156 29.8406 28.65C29.4 28.7719 28.5938 28.8562 27.3563 28.9125C26.1375 28.9781 25.0219 29.0063 23.9906 29.0063L22.5 29.0625C18.5719 29.0625 16.125 28.9125 15.1594 28.65C14.3156 28.4156 13.7719 27.8719 13.5375 27.0281C13.4156 26.5875 13.3313 25.9969 13.275 25.2469C13.2094 24.4969 13.1812 23.85 13.1812 23.2875L13.125 22.5C13.125 20.4469 13.275 18.9375 13.5375 17.9719C13.7719 17.1281 14.3156 16.5844 15.1594 16.35C15.6 16.2281 16.4062 16.1437 17.6438 16.0875C18.8625 16.0219 19.9781 15.9937 21.0094 15.9937L22.5 15.9375C26.4281 15.9375 28.875 16.0875 29.8406 16.35C30.6844 16.5844 31.2281 17.1281 31.4625 17.9719Z" fill="white"/>
</svg>
