<svg width="128" height="34" viewBox="0 0 128 34" fill="none" xmlns="http://www.w3.org/2000/svg">
<rect width="121" height="34" rx="10" fill="#2D2D2D" fill-opacity="0.3"/>
<mask id="path-2-outside-1_128_5337" maskUnits="userSpaceOnUse" x="9" y="11" width="102" height="15" fill="black">
<rect fill="white" x="9" y="11" width="102" height="15"/>
<path d="M14.48 22.126C13.6213 22.126 12.856 22.014 12.184 21.79C11.5213 21.5567 10.98 21.244 10.56 20.852L10.98 19.956C11.4373 20.348 11.9413 20.642 12.492 20.838C13.0427 21.0247 13.6867 21.118 14.424 21.118C15.376 21.118 16.0713 20.9593 16.51 20.642C16.9487 20.3247 17.168 19.858 17.168 19.242C17.168 18.6353 16.972 18.192 16.58 17.912C16.1973 17.6227 15.614 17.478 14.83 17.478H12.338V16.526H14.634C15.3807 16.526 15.95 16.3813 16.342 16.092C16.734 15.7933 16.93 15.364 16.93 14.804C16.93 14.244 16.72 13.8053 16.3 13.488C15.8893 13.1707 15.2687 13.012 14.438 13.012C13.822 13.012 13.2433 13.1053 12.702 13.292C12.1607 13.4693 11.666 13.7493 11.218 14.132L10.784 13.236C11.2227 12.8347 11.7687 12.5313 12.422 12.326C13.0847 12.1113 13.78 12.004 14.508 12.004C15.684 12.004 16.5707 12.2467 17.168 12.732C17.7747 13.2173 18.078 13.8707 18.078 14.692C18.078 15.2987 17.8913 15.812 17.518 16.232C17.154 16.6427 16.6547 16.918 16.02 17.058V16.862C16.7293 16.946 17.2893 17.2027 17.7 17.632C18.1107 18.052 18.316 18.6073 18.316 19.298C18.316 19.8767 18.176 20.3807 17.896 20.81C17.616 21.23 17.1913 21.5567 16.622 21.79C16.0527 22.014 15.3387 22.126 14.48 22.126ZM22.9965 22.126C22.3712 22.126 21.8252 21.9813 21.3585 21.692C20.8918 21.3933 20.5278 20.9733 20.2665 20.432C20.0145 19.8907 19.8885 19.242 19.8885 18.486C19.8885 17.7207 20.0145 17.0673 20.2665 16.526C20.5278 15.9847 20.8918 15.5693 21.3585 15.28C21.8252 14.9907 22.3712 14.846 22.9965 14.846C23.6312 14.846 24.1772 15.0093 24.6345 15.336C25.1012 15.6533 25.4092 16.0873 25.5585 16.638H25.3905L25.5445 14.972H26.6365C26.6085 15.2427 26.5805 15.518 26.5525 15.798C26.5338 16.0687 26.5245 16.3347 26.5245 16.596V22H25.3905V20.348H25.5445C25.3952 20.8987 25.0872 21.3327 24.6205 21.65C24.1538 21.9673 23.6125 22.126 22.9965 22.126ZM23.2205 21.202C23.8925 21.202 24.4245 20.9733 24.8165 20.516C25.2085 20.0493 25.4045 19.3727 25.4045 18.486C25.4045 17.59 25.2085 16.9133 24.8165 16.456C24.4245 15.9893 23.8925 15.756 23.2205 15.756C22.5578 15.756 22.0258 15.9893 21.6245 16.456C21.2325 16.9133 21.0365 17.59 21.0365 18.486C21.0365 19.3727 21.2325 20.0493 21.6245 20.516C22.0258 20.9733 22.5578 21.202 23.2205 21.202ZM28.0694 23.82V21.104H28.8114C29.1474 20.628 29.3901 20.0587 29.5394 19.396C29.6887 18.7333 29.7634 17.9493 29.7634 17.044V14.972H34.7054V21.104H35.8114V23.82H34.8314V22H29.0354V23.82H28.0694ZM29.9034 21.118H33.6274V15.854H30.7574V17.226C30.7574 17.9633 30.6827 18.6773 30.5334 19.368C30.3934 20.0493 30.1834 20.6327 29.9034 21.118ZM40.059 22.126C39.4337 22.126 38.8877 21.9813 38.421 21.692C37.9543 21.3933 37.5903 20.9733 37.329 20.432C37.077 19.8907 36.951 19.242 36.951 18.486C36.951 17.7207 37.077 17.0673 37.329 16.526C37.5903 15.9847 37.9543 15.5693 38.421 15.28C38.8877 14.9907 39.4337 14.846 40.059 14.846C40.6937 14.846 41.2397 15.0093 41.697 15.336C42.1637 15.6533 42.4717 16.0873 42.621 16.638H42.453L42.607 14.972H43.699C43.671 15.2427 43.643 15.518 43.615 15.798C43.5963 16.0687 43.587 16.3347 43.587 16.596V22H42.453V20.348H42.607C42.4577 20.8987 42.1497 21.3327 41.683 21.65C41.2163 21.9673 40.675 22.126 40.059 22.126ZM40.283 21.202C40.955 21.202 41.487 20.9733 41.879 20.516C42.271 20.0493 42.467 19.3727 42.467 18.486C42.467 17.59 42.271 16.9133 41.879 16.456C41.487 15.9893 40.955 15.756 40.283 15.756C39.6203 15.756 39.0883 15.9893 38.687 16.456C38.295 16.9133 38.099 17.59 38.099 18.486C38.099 19.3727 38.295 20.0493 38.687 20.516C39.0883 20.9733 39.6203 21.202 40.283 21.202ZM47.3719 22V15.882H44.8239V14.972H51.0679V15.882H48.5059V22H47.3719ZM52.245 22V14.972H53.379V17.492H55.493C56.3983 17.492 57.0797 17.688 57.537 18.08C58.0037 18.4627 58.237 19.0087 58.237 19.718C58.237 20.194 58.1297 20.6047 57.915 20.95C57.7097 21.286 57.4017 21.5473 56.991 21.734C56.5897 21.9113 56.0903 22 55.493 22H52.245ZM53.379 21.188H55.395C55.9643 21.188 56.3983 21.0713 56.697 20.838C56.9957 20.5953 57.145 20.2267 57.145 19.732C57.145 19.2373 56.9957 18.878 56.697 18.654C56.4077 18.4207 55.9737 18.304 55.395 18.304H53.379V21.188ZM63.579 22V14.972H66.967C67.779 14.972 68.3857 15.1307 68.787 15.448C69.1977 15.756 69.403 16.2133 69.403 16.82C69.403 17.268 69.2443 17.646 68.927 17.954C68.619 18.2527 68.2177 18.43 67.723 18.486V18.318C68.3017 18.3367 68.7637 18.5047 69.109 18.822C69.4543 19.1393 69.627 19.55 69.627 20.054C69.627 20.6607 69.403 21.1367 68.955 21.482C68.5163 21.8273 67.891 22 67.079 22H63.579ZM64.657 21.23H67.023C67.5177 21.23 67.8957 21.1273 68.157 20.922C68.4277 20.7073 68.563 20.404 68.563 20.012C68.563 19.62 68.4277 19.3213 68.157 19.116C67.8957 18.9107 67.5177 18.808 67.023 18.808H64.657V21.23ZM64.657 18.038H66.897C67.3543 18.038 67.709 17.9353 67.961 17.73C68.213 17.5247 68.339 17.24 68.339 16.876C68.339 16.512 68.213 16.232 67.961 16.036C67.709 15.8307 67.3543 15.728 66.897 15.728H64.657V18.038ZM74.3256 22.126C73.6536 22.126 73.0656 21.9813 72.5616 21.692C72.067 21.3933 71.6843 20.9733 71.4136 20.432C71.143 19.8813 71.0076 19.2327 71.0076 18.486C71.0076 17.73 71.143 17.0813 71.4136 16.54C71.6843 15.9987 72.067 15.5833 72.5616 15.294C73.0656 14.9953 73.6536 14.846 74.3256 14.846C75.007 14.846 75.595 14.9953 76.0896 15.294C76.5936 15.5833 76.981 15.9987 77.2516 16.54C77.5316 17.0813 77.6716 17.73 77.6716 18.486C77.6716 19.2327 77.5316 19.8813 77.2516 20.432C76.981 20.9733 76.5936 21.3933 76.0896 21.692C75.595 21.9813 75.007 22.126 74.3256 22.126ZM74.3256 21.202C74.9976 21.202 75.5296 20.9733 75.9216 20.516C76.3136 20.0493 76.5096 19.3727 76.5096 18.486C76.5096 17.59 76.309 16.9133 75.9076 16.456C75.5156 15.9893 74.9883 15.756 74.3256 15.756C73.663 15.756 73.1356 15.9893 72.7436 16.456C72.3516 16.9133 72.1556 17.59 72.1556 18.486C72.1556 19.3727 72.3516 20.0493 72.7436 20.516C73.1356 20.9733 73.663 21.202 74.3256 21.202ZM79.5204 22V14.972H85.6104V22H84.4764V15.868H80.6544V22H79.5204ZM87.9026 25.024V16.596C87.9026 16.3347 87.8886 16.0687 87.8606 15.798C87.8419 15.518 87.8186 15.2427 87.7906 14.972H88.8826L89.0366 16.638H88.8686C89.0179 16.0873 89.3212 15.6533 89.7786 15.336C90.2359 15.0093 90.7819 14.846 91.4166 14.846C92.0512 14.846 92.5972 14.9907 93.0546 15.28C93.5212 15.5693 93.8852 15.9847 94.1466 16.526C94.4079 17.0673 94.5386 17.7207 94.5386 18.486C94.5386 19.242 94.4079 19.8907 94.1466 20.432C93.8946 20.9733 93.5352 21.3933 93.0686 21.692C92.6019 21.9813 92.0512 22.126 91.4166 22.126C90.7912 22.126 90.2499 21.9673 89.7926 21.65C89.3352 21.3327 89.0319 20.8987 88.8826 20.348H89.0366V25.024H87.9026ZM91.1926 21.202C91.8646 21.202 92.3966 20.9733 92.7886 20.516C93.1899 20.0493 93.3906 19.3727 93.3906 18.486C93.3906 17.59 93.1899 16.9133 92.7886 16.456C92.3966 15.9893 91.8646 15.756 91.1926 15.756C90.5299 15.756 89.9979 15.9893 89.5966 16.456C89.2046 16.9133 89.0086 17.59 89.0086 18.486C89.0086 19.3727 89.2046 20.0493 89.5966 20.516C89.9979 20.9733 90.5299 21.202 91.1926 21.202ZM99.3315 22.126C98.6595 22.126 98.0715 21.9813 97.5675 21.692C97.0728 21.3933 96.6902 20.9733 96.4195 20.432C96.1488 19.8813 96.0135 19.2327 96.0135 18.486C96.0135 17.73 96.1488 17.0813 96.4195 16.54C96.6902 15.9987 97.0728 15.5833 97.5675 15.294C98.0715 14.9953 98.6595 14.846 99.3315 14.846C100.013 14.846 100.601 14.9953 101.095 15.294C101.599 15.5833 101.987 15.9987 102.257 16.54C102.537 17.0813 102.677 17.73 102.677 18.486C102.677 19.2327 102.537 19.8813 102.257 20.432C101.987 20.9733 101.599 21.3933 101.095 21.692C100.601 21.9813 100.013 22.126 99.3315 22.126ZM99.3315 21.202C100.003 21.202 100.535 20.9733 100.927 20.516C101.319 20.0493 101.515 19.3727 101.515 18.486C101.515 17.59 101.315 16.9133 100.913 16.456C100.521 15.9893 99.9942 15.756 99.3315 15.756C98.6688 15.756 98.1415 15.9893 97.7495 16.456C97.3575 16.9133 97.1615 17.59 97.1615 18.486C97.1615 19.3727 97.3575 20.0493 97.7495 20.516C98.1415 20.9733 98.6688 21.202 99.3315 21.202ZM107.536 22.126C106.846 22.126 106.244 21.9767 105.73 21.678C105.226 21.3793 104.834 20.9547 104.554 20.404C104.284 19.8533 104.148 19.2 104.148 18.444C104.148 17.6787 104.288 17.03 104.568 16.498C104.848 15.9567 105.24 15.546 105.744 15.266C106.258 14.986 106.855 14.846 107.536 14.846C107.984 14.846 108.418 14.9253 108.838 15.084C109.268 15.2427 109.622 15.4667 109.902 15.756L109.496 16.568C109.216 16.2973 108.908 16.0967 108.572 15.966C108.246 15.8353 107.924 15.77 107.606 15.77C106.878 15.77 106.314 15.9987 105.912 16.456C105.511 16.9133 105.31 17.5807 105.31 18.458C105.31 19.326 105.511 19.998 105.912 20.474C106.314 20.95 106.878 21.188 107.606 21.188C107.914 21.188 108.232 21.1273 108.558 21.006C108.894 20.8847 109.207 20.684 109.496 20.404L109.902 21.202C109.613 21.5007 109.254 21.7293 108.824 21.888C108.395 22.0467 107.966 22.126 107.536 22.126Z"/>
</mask>
<path d="M14.48 22.126C13.6213 22.126 12.856 22.014 12.184 21.79C11.5213 21.5567 10.98 21.244 10.56 20.852L10.98 19.956C11.4373 20.348 11.9413 20.642 12.492 20.838C13.0427 21.0247 13.6867 21.118 14.424 21.118C15.376 21.118 16.0713 20.9593 16.51 20.642C16.9487 20.3247 17.168 19.858 17.168 19.242C17.168 18.6353 16.972 18.192 16.58 17.912C16.1973 17.6227 15.614 17.478 14.83 17.478H12.338V16.526H14.634C15.3807 16.526 15.95 16.3813 16.342 16.092C16.734 15.7933 16.93 15.364 16.93 14.804C16.93 14.244 16.72 13.8053 16.3 13.488C15.8893 13.1707 15.2687 13.012 14.438 13.012C13.822 13.012 13.2433 13.1053 12.702 13.292C12.1607 13.4693 11.666 13.7493 11.218 14.132L10.784 13.236C11.2227 12.8347 11.7687 12.5313 12.422 12.326C13.0847 12.1113 13.78 12.004 14.508 12.004C15.684 12.004 16.5707 12.2467 17.168 12.732C17.7747 13.2173 18.078 13.8707 18.078 14.692C18.078 15.2987 17.8913 15.812 17.518 16.232C17.154 16.6427 16.6547 16.918 16.02 17.058V16.862C16.7293 16.946 17.2893 17.2027 17.7 17.632C18.1107 18.052 18.316 18.6073 18.316 19.298C18.316 19.8767 18.176 20.3807 17.896 20.81C17.616 21.23 17.1913 21.5567 16.622 21.79C16.0527 22.014 15.3387 22.126 14.48 22.126ZM22.9965 22.126C22.3712 22.126 21.8252 21.9813 21.3585 21.692C20.8918 21.3933 20.5278 20.9733 20.2665 20.432C20.0145 19.8907 19.8885 19.242 19.8885 18.486C19.8885 17.7207 20.0145 17.0673 20.2665 16.526C20.5278 15.9847 20.8918 15.5693 21.3585 15.28C21.8252 14.9907 22.3712 14.846 22.9965 14.846C23.6312 14.846 24.1772 15.0093 24.6345 15.336C25.1012 15.6533 25.4092 16.0873 25.5585 16.638H25.3905L25.5445 14.972H26.6365C26.6085 15.2427 26.5805 15.518 26.5525 15.798C26.5338 16.0687 26.5245 16.3347 26.5245 16.596V22H25.3905V20.348H25.5445C25.3952 20.8987 25.0872 21.3327 24.6205 21.65C24.1538 21.9673 23.6125 22.126 22.9965 22.126ZM23.2205 21.202C23.8925 21.202 24.4245 20.9733 24.8165 20.516C25.2085 20.0493 25.4045 19.3727 25.4045 18.486C25.4045 17.59 25.2085 16.9133 24.8165 16.456C24.4245 15.9893 23.8925 15.756 23.2205 15.756C22.5578 15.756 22.0258 15.9893 21.6245 16.456C21.2325 16.9133 21.0365 17.59 21.0365 18.486C21.0365 19.3727 21.2325 20.0493 21.6245 20.516C22.0258 20.9733 22.5578 21.202 23.2205 21.202ZM28.0694 23.82V21.104H28.8114C29.1474 20.628 29.3901 20.0587 29.5394 19.396C29.6887 18.7333 29.7634 17.9493 29.7634 17.044V14.972H34.7054V21.104H35.8114V23.82H34.8314V22H29.0354V23.82H28.0694ZM29.9034 21.118H33.6274V15.854H30.7574V17.226C30.7574 17.9633 30.6827 18.6773 30.5334 19.368C30.3934 20.0493 30.1834 20.6327 29.9034 21.118ZM40.059 22.126C39.4337 22.126 38.8877 21.9813 38.421 21.692C37.9543 21.3933 37.5903 20.9733 37.329 20.432C37.077 19.8907 36.951 19.242 36.951 18.486C36.951 17.7207 37.077 17.0673 37.329 16.526C37.5903 15.9847 37.9543 15.5693 38.421 15.28C38.8877 14.9907 39.4337 14.846 40.059 14.846C40.6937 14.846 41.2397 15.0093 41.697 15.336C42.1637 15.6533 42.4717 16.0873 42.621 16.638H42.453L42.607 14.972H43.699C43.671 15.2427 43.643 15.518 43.615 15.798C43.5963 16.0687 43.587 16.3347 43.587 16.596V22H42.453V20.348H42.607C42.4577 20.8987 42.1497 21.3327 41.683 21.65C41.2163 21.9673 40.675 22.126 40.059 22.126ZM40.283 21.202C40.955 21.202 41.487 20.9733 41.879 20.516C42.271 20.0493 42.467 19.3727 42.467 18.486C42.467 17.59 42.271 16.9133 41.879 16.456C41.487 15.9893 40.955 15.756 40.283 15.756C39.6203 15.756 39.0883 15.9893 38.687 16.456C38.295 16.9133 38.099 17.59 38.099 18.486C38.099 19.3727 38.295 20.0493 38.687 20.516C39.0883 20.9733 39.6203 21.202 40.283 21.202ZM47.3719 22V15.882H44.8239V14.972H51.0679V15.882H48.5059V22H47.3719ZM52.245 22V14.972H53.379V17.492H55.493C56.3983 17.492 57.0797 17.688 57.537 18.08C58.0037 18.4627 58.237 19.0087 58.237 19.718C58.237 20.194 58.1297 20.6047 57.915 20.95C57.7097 21.286 57.4017 21.5473 56.991 21.734C56.5897 21.9113 56.0903 22 55.493 22H52.245ZM53.379 21.188H55.395C55.9643 21.188 56.3983 21.0713 56.697 20.838C56.9957 20.5953 57.145 20.2267 57.145 19.732C57.145 19.2373 56.9957 18.878 56.697 18.654C56.4077 18.4207 55.9737 18.304 55.395 18.304H53.379V21.188ZM63.579 22V14.972H66.967C67.779 14.972 68.3857 15.1307 68.787 15.448C69.1977 15.756 69.403 16.2133 69.403 16.82C69.403 17.268 69.2443 17.646 68.927 17.954C68.619 18.2527 68.2177 18.43 67.723 18.486V18.318C68.3017 18.3367 68.7637 18.5047 69.109 18.822C69.4543 19.1393 69.627 19.55 69.627 20.054C69.627 20.6607 69.403 21.1367 68.955 21.482C68.5163 21.8273 67.891 22 67.079 22H63.579ZM64.657 21.23H67.023C67.5177 21.23 67.8957 21.1273 68.157 20.922C68.4277 20.7073 68.563 20.404 68.563 20.012C68.563 19.62 68.4277 19.3213 68.157 19.116C67.8957 18.9107 67.5177 18.808 67.023 18.808H64.657V21.23ZM64.657 18.038H66.897C67.3543 18.038 67.709 17.9353 67.961 17.73C68.213 17.5247 68.339 17.24 68.339 16.876C68.339 16.512 68.213 16.232 67.961 16.036C67.709 15.8307 67.3543 15.728 66.897 15.728H64.657V18.038ZM74.3256 22.126C73.6536 22.126 73.0656 21.9813 72.5616 21.692C72.067 21.3933 71.6843 20.9733 71.4136 20.432C71.143 19.8813 71.0076 19.2327 71.0076 18.486C71.0076 17.73 71.143 17.0813 71.4136 16.54C71.6843 15.9987 72.067 15.5833 72.5616 15.294C73.0656 14.9953 73.6536 14.846 74.3256 14.846C75.007 14.846 75.595 14.9953 76.0896 15.294C76.5936 15.5833 76.981 15.9987 77.2516 16.54C77.5316 17.0813 77.6716 17.73 77.6716 18.486C77.6716 19.2327 77.5316 19.8813 77.2516 20.432C76.981 20.9733 76.5936 21.3933 76.0896 21.692C75.595 21.9813 75.007 22.126 74.3256 22.126ZM74.3256 21.202C74.9976 21.202 75.5296 20.9733 75.9216 20.516C76.3136 20.0493 76.5096 19.3727 76.5096 18.486C76.5096 17.59 76.309 16.9133 75.9076 16.456C75.5156 15.9893 74.9883 15.756 74.3256 15.756C73.663 15.756 73.1356 15.9893 72.7436 16.456C72.3516 16.9133 72.1556 17.59 72.1556 18.486C72.1556 19.3727 72.3516 20.0493 72.7436 20.516C73.1356 20.9733 73.663 21.202 74.3256 21.202ZM79.5204 22V14.972H85.6104V22H84.4764V15.868H80.6544V22H79.5204ZM87.9026 25.024V16.596C87.9026 16.3347 87.8886 16.0687 87.8606 15.798C87.8419 15.518 87.8186 15.2427 87.7906 14.972H88.8826L89.0366 16.638H88.8686C89.0179 16.0873 89.3212 15.6533 89.7786 15.336C90.2359 15.0093 90.7819 14.846 91.4166 14.846C92.0512 14.846 92.5972 14.9907 93.0546 15.28C93.5212 15.5693 93.8852 15.9847 94.1466 16.526C94.4079 17.0673 94.5386 17.7207 94.5386 18.486C94.5386 19.242 94.4079 19.8907 94.1466 20.432C93.8946 20.9733 93.5352 21.3933 93.0686 21.692C92.6019 21.9813 92.0512 22.126 91.4166 22.126C90.7912 22.126 90.2499 21.9673 89.7926 21.65C89.3352 21.3327 89.0319 20.8987 88.8826 20.348H89.0366V25.024H87.9026ZM91.1926 21.202C91.8646 21.202 92.3966 20.9733 92.7886 20.516C93.1899 20.0493 93.3906 19.3727 93.3906 18.486C93.3906 17.59 93.1899 16.9133 92.7886 16.456C92.3966 15.9893 91.8646 15.756 91.1926 15.756C90.5299 15.756 89.9979 15.9893 89.5966 16.456C89.2046 16.9133 89.0086 17.59 89.0086 18.486C89.0086 19.3727 89.2046 20.0493 89.5966 20.516C89.9979 20.9733 90.5299 21.202 91.1926 21.202ZM99.3315 22.126C98.6595 22.126 98.0715 21.9813 97.5675 21.692C97.0728 21.3933 96.6902 20.9733 96.4195 20.432C96.1488 19.8813 96.0135 19.2327 96.0135 18.486C96.0135 17.73 96.1488 17.0813 96.4195 16.54C96.6902 15.9987 97.0728 15.5833 97.5675 15.294C98.0715 14.9953 98.6595 14.846 99.3315 14.846C100.013 14.846 100.601 14.9953 101.095 15.294C101.599 15.5833 101.987 15.9987 102.257 16.54C102.537 17.0813 102.677 17.73 102.677 18.486C102.677 19.2327 102.537 19.8813 102.257 20.432C101.987 20.9733 101.599 21.3933 101.095 21.692C100.601 21.9813 100.013 22.126 99.3315 22.126ZM99.3315 21.202C100.003 21.202 100.535 20.9733 100.927 20.516C101.319 20.0493 101.515 19.3727 101.515 18.486C101.515 17.59 101.315 16.9133 100.913 16.456C100.521 15.9893 99.9942 15.756 99.3315 15.756C98.6688 15.756 98.1415 15.9893 97.7495 16.456C97.3575 16.9133 97.1615 17.59 97.1615 18.486C97.1615 19.3727 97.3575 20.0493 97.7495 20.516C98.1415 20.9733 98.6688 21.202 99.3315 21.202ZM107.536 22.126C106.846 22.126 106.244 21.9767 105.73 21.678C105.226 21.3793 104.834 20.9547 104.554 20.404C104.284 19.8533 104.148 19.2 104.148 18.444C104.148 17.6787 104.288 17.03 104.568 16.498C104.848 15.9567 105.24 15.546 105.744 15.266C106.258 14.986 106.855 14.846 107.536 14.846C107.984 14.846 108.418 14.9253 108.838 15.084C109.268 15.2427 109.622 15.4667 109.902 15.756L109.496 16.568C109.216 16.2973 108.908 16.0967 108.572 15.966C108.246 15.8353 107.924 15.77 107.606 15.77C106.878 15.77 106.314 15.9987 105.912 16.456C105.511 16.9133 105.31 17.5807 105.31 18.458C105.31 19.326 105.511 19.998 105.912 20.474C106.314 20.95 106.878 21.188 107.606 21.188C107.914 21.188 108.232 21.1273 108.558 21.006C108.894 20.8847 109.207 20.684 109.496 20.404L109.902 21.202C109.613 21.5007 109.254 21.7293 108.824 21.888C108.395 22.0467 107.966 22.126 107.536 22.126Z" fill="white"/>
<path d="M12.184 21.79L12.0179 22.2617L12.0259 22.2643L12.184 21.79ZM10.56 20.852L10.1073 20.6398L9.95283 20.9693L10.2188 21.2175L10.56 20.852ZM10.98 19.956L11.3054 19.5764L10.8063 19.1486L10.5273 19.7438L10.98 19.956ZM12.492 20.838L12.3243 21.3091L12.3315 21.3115L12.492 20.838ZM16.51 20.642L16.8031 21.0471H16.8031L16.51 20.642ZM16.58 17.912L16.2783 18.311L16.2894 18.3189L16.58 17.912ZM12.338 17.478H11.838V17.978H12.338V17.478ZM12.338 16.526V16.026H11.838V16.526H12.338ZM16.342 16.092L16.639 16.4943L16.645 16.4897L16.342 16.092ZM16.3 13.488L15.9943 13.8837L15.9986 13.8869L16.3 13.488ZM12.702 13.292L12.8577 13.7672L12.865 13.7647L12.702 13.292ZM11.218 14.132L10.768 14.35L11.0503 14.9328L11.5427 14.5122L11.218 14.132ZM10.784 13.236L10.4465 12.8671L10.1716 13.1186L10.334 13.454L10.784 13.236ZM12.422 12.326L12.5719 12.803L12.5761 12.8017L12.422 12.326ZM17.168 12.732L16.8527 13.1201L16.8557 13.1224L17.168 12.732ZM17.518 16.232L17.1443 15.8998L17.1438 15.9003L17.518 16.232ZM16.02 17.058H15.52V17.6803L16.1277 17.5463L16.02 17.058ZM16.02 16.862L16.0788 16.3655L15.52 16.2993V16.862H16.02ZM17.7 17.632L17.3387 17.9776L17.3425 17.9816L17.7 17.632ZM17.896 20.81L18.312 21.0874L18.3148 21.0831L17.896 20.81ZM16.622 21.79L16.8051 22.2553L16.8116 22.2527L16.622 21.79ZM14.48 21.626C13.6641 21.626 12.9536 21.5195 12.3421 21.3157L12.0259 22.2643C12.7584 22.5085 13.5786 22.626 14.48 22.626V21.626ZM12.3501 21.3184C11.7383 21.103 11.2608 20.8222 10.9012 20.4865L10.2188 21.2175C10.6992 21.6658 11.3044 22.0104 12.0179 22.2616L12.3501 21.3184ZM11.0127 21.0642L11.4327 20.1682L10.5273 19.7438L10.1073 20.6398L11.0127 21.0642ZM10.6546 20.3356C11.157 20.7663 11.7142 21.0919 12.3243 21.3091L12.6597 20.3669C12.1685 20.1921 11.7176 19.9297 11.3054 19.5764L10.6546 20.3356ZM12.3315 21.3115C12.9456 21.5197 13.646 21.618 14.424 21.618V20.618C13.7273 20.618 13.1398 20.5296 12.6525 20.3645L12.3315 21.3115ZM14.424 21.618C15.4106 21.618 16.2357 21.4575 16.8031 21.0471L16.2169 20.2369C15.907 20.4611 15.3414 20.618 14.424 20.618V21.618ZM16.8031 21.0471C17.391 20.6218 17.668 19.993 17.668 19.242H16.668C16.668 19.723 16.5063 20.0275 16.2169 20.2369L16.8031 21.0471ZM17.668 19.242C17.668 18.5206 17.4279 17.9032 16.8706 17.5051L16.2894 18.3189C16.5161 18.4808 16.668 18.7501 16.668 19.242H17.668ZM16.8816 17.5132C16.3723 17.1281 15.6594 16.978 14.83 16.978V17.978C15.5686 17.978 16.0223 18.1172 16.2784 18.3108L16.8816 17.5132ZM14.83 16.978H12.338V17.978H14.83V16.978ZM12.838 17.478V16.526H11.838V17.478H12.838ZM12.338 17.026H14.634V16.026H12.338V17.026ZM14.634 17.026C15.434 17.026 16.126 16.8728 16.6389 16.4943L16.0451 15.6897C15.774 15.8898 15.3273 16.026 14.634 16.026V17.026ZM16.645 16.4897C17.1792 16.0827 17.43 15.4958 17.43 14.804H16.43C16.43 15.2322 16.2888 15.504 16.039 15.6943L16.645 16.4897ZM17.43 14.804C17.43 14.0989 17.1555 13.5077 16.6014 13.0891L15.9986 13.8869C16.2845 14.103 16.43 14.3891 16.43 14.804H17.43ZM16.6057 13.0924C16.0687 12.6774 15.3176 12.512 14.438 12.512V13.512C15.2198 13.512 15.7099 13.6639 15.9943 13.8836L16.6057 13.0924ZM14.438 12.512C13.7707 12.512 13.1366 12.6132 12.539 12.8193L12.865 13.7647C13.3501 13.5974 13.8733 13.512 14.438 13.512V12.512ZM12.5463 12.8168C11.9409 13.0152 11.3891 13.3282 10.8933 13.7518L11.5427 14.5122C11.9429 14.1704 12.3805 13.9235 12.8577 13.7672L12.5463 12.8168ZM11.668 13.914L11.234 13.018L10.334 13.454L10.768 14.35L11.668 13.914ZM11.1215 13.6049C11.4987 13.2598 11.9777 12.9897 12.5719 12.803L12.2721 11.849C11.5596 12.0729 10.9467 12.4095 10.4465 12.8671L11.1215 13.6049ZM12.5761 12.8017C13.1868 12.6038 13.8299 12.504 14.508 12.504V11.504C13.7301 11.504 12.9826 11.6188 12.2679 11.8503L12.5761 12.8017ZM14.508 12.504C15.6269 12.504 16.3809 12.7367 16.8527 13.1201L17.4833 12.3439C16.7605 11.7566 15.7411 11.504 14.508 11.504V12.504ZM16.8557 13.1224C17.3361 13.5068 17.578 14.0125 17.578 14.692H18.578C18.578 13.7288 18.2132 12.9279 17.4803 12.3416L16.8557 13.1224ZM17.578 14.692C17.578 15.1868 17.4295 15.579 17.1443 15.8998L17.8917 16.5642C18.3532 16.045 18.578 15.4105 18.578 14.692H17.578ZM17.1438 15.9003C16.8621 16.2182 16.4634 16.4482 15.9123 16.5697L16.1277 17.5463C16.8459 17.3878 17.4459 17.0671 17.8922 16.5637L17.1438 15.9003ZM16.52 17.058V16.862H15.52V17.058H16.52ZM15.9612 17.3585C16.5795 17.4317 17.0237 17.6483 17.3387 17.9776L18.0613 17.2864C17.555 16.757 16.8792 16.4603 16.0788 16.3655L15.9612 17.3585ZM17.3425 17.9816C17.6459 18.2919 17.816 18.7133 17.816 19.298H18.816C18.816 18.5013 18.5754 17.8121 18.0575 17.2824L17.3425 17.9816ZM17.816 19.298C17.816 19.7926 17.6976 20.1989 17.4772 20.5369L18.3148 21.0831C18.6544 20.5624 18.816 19.9608 18.816 19.298H17.816ZM17.48 20.5326C17.2664 20.853 16.9299 21.1235 16.4324 21.3273L16.8116 22.2527C17.4528 21.9899 17.9656 21.607 18.312 21.0873L17.48 20.5326ZM16.4389 21.3247C15.9463 21.5185 15.2994 21.626 14.48 21.626V22.626C15.3779 22.626 16.159 22.5095 16.8051 22.2553L16.4389 21.3247ZM21.3585 21.692L21.0889 22.1132L21.095 22.117L21.3585 21.692ZM20.2665 20.432L19.8131 20.643L19.8162 20.6494L20.2665 20.432ZM20.2665 16.526L19.8162 16.3086L19.8132 16.315L20.2665 16.526ZM21.3585 15.28L21.622 15.705V15.705L21.3585 15.28ZM24.6345 15.336L24.3438 15.743L24.3533 15.7495L24.6345 15.336ZM25.5585 16.638V17.138H26.2121L26.0411 16.5071L25.5585 16.638ZM25.3905 16.638L24.8926 16.592L24.8421 17.138H25.3905V16.638ZM25.5445 14.972V14.472H25.0886L25.0466 14.926L25.5445 14.972ZM26.6365 14.972L27.1338 15.0234L27.1909 14.472H26.6365V14.972ZM26.5525 15.798L26.055 15.7482L26.0542 15.7559L26.0537 15.7636L26.5525 15.798ZM26.5245 22V22.5H27.0245V22H26.5245ZM25.3905 22H24.8905V22.5H25.3905V22ZM25.3905 20.348V19.848H24.8905V20.348H25.3905ZM25.5445 20.348L26.0271 20.4789L26.1981 19.848H25.5445V20.348ZM24.6205 21.65L24.9016 22.0635L24.6205 21.65ZM24.8165 20.516L25.1961 20.8414L25.1993 20.8376L24.8165 20.516ZM24.8165 16.456L24.4336 16.7776L24.4369 16.7814L24.8165 16.456ZM21.6245 16.456L21.2454 16.13L21.2449 16.1306L21.6245 16.456ZM21.6245 20.516L21.2415 20.8377L21.2487 20.8458L21.6245 20.516ZM22.9965 21.626C22.451 21.626 21.999 21.5008 21.622 21.267L21.095 22.117C21.6513 22.4619 22.2913 22.626 22.9965 22.626V21.626ZM21.628 21.2709C21.2459 21.0263 20.9414 20.68 20.7168 20.2146L19.8162 20.6494C20.1142 21.2667 20.5378 21.7604 21.089 22.1131L21.628 21.2709ZM20.7198 20.221C20.5056 19.7609 20.3885 19.1879 20.3885 18.486H19.3885C19.3885 19.2961 19.5234 20.0204 19.8132 20.643L20.7198 20.221ZM20.3885 18.486C20.3885 17.7738 20.5059 17.1964 20.7198 16.737L19.8132 16.315C19.523 16.9383 19.3885 17.6676 19.3885 18.486H20.3885ZM20.7168 16.7434C20.9409 16.2792 21.2436 15.9395 21.622 15.705L21.095 14.855C20.54 15.1991 20.1148 15.6902 19.8162 16.3086L20.7168 16.7434ZM21.622 15.705C21.999 15.4712 22.451 15.346 22.9965 15.346V14.346C22.2913 14.346 21.6513 14.5101 21.095 14.855L21.622 15.705ZM22.9965 15.346C23.541 15.346 23.9821 15.4844 24.3439 15.7429L24.9251 14.9291C24.3722 14.5342 23.7213 14.346 22.9965 14.346V15.346ZM24.3533 15.7495C24.7201 15.9989 24.9574 16.332 25.0759 16.7689L26.0411 16.5071C25.8609 15.8426 25.4822 15.3078 24.9156 14.9225L24.3533 15.7495ZM25.5585 16.138H25.3905V17.138H25.5585V16.138ZM25.8884 16.684L26.0424 15.018L25.0466 14.926L24.8926 16.592L25.8884 16.684ZM25.5445 15.472H26.6365V14.472H25.5445V15.472ZM26.1391 14.9205C26.1111 15.1918 26.083 15.4677 26.055 15.7482L27.05 15.8478C27.0779 15.5683 27.1059 15.2935 27.1338 15.0234L26.1391 14.9205ZM26.0537 15.7636C26.0342 16.0453 26.0245 16.3228 26.0245 16.596H27.0245C27.0245 16.3466 27.0334 16.0921 27.0513 15.8324L26.0537 15.7636ZM26.0245 16.596V22H27.0245V16.596H26.0245ZM26.5245 21.5H25.3905V22.5H26.5245V21.5ZM25.8905 22V20.348H24.8905V22H25.8905ZM25.3905 20.848H25.5445V19.848H25.3905V20.848ZM25.0619 20.2171C24.9434 20.654 24.7061 20.9871 24.3393 21.2365L24.9016 22.0635C25.4682 21.6782 25.8469 21.1434 26.0271 20.4789L25.0619 20.2171ZM24.3393 21.2365C23.9632 21.4923 23.5218 21.626 22.9965 21.626V22.626C23.7032 22.626 24.3445 22.4424 24.9016 22.0635L24.3393 21.2365ZM23.2205 21.702C24.0195 21.702 24.6974 21.4232 25.1961 20.8414L24.4369 20.1906C24.1515 20.5235 23.7655 20.702 23.2205 20.702V21.702ZM25.1993 20.8376C25.6949 20.2477 25.9045 19.4381 25.9045 18.486H24.9045C24.9045 19.3072 24.7221 19.851 24.4336 20.1944L25.1993 20.8376ZM25.9045 18.486C25.9045 17.5271 25.696 16.7138 25.1961 16.1306L24.4369 16.7814C24.721 17.1129 24.9045 17.6529 24.9045 18.486H25.9045ZM25.1993 16.1344C24.7018 15.5421 24.0231 15.256 23.2205 15.256V16.256C23.7619 16.256 24.1471 16.4365 24.4336 16.7776L25.1993 16.1344ZM23.2205 15.256C22.4248 15.256 21.7497 15.5436 21.2454 16.13L22.0036 16.782C22.302 16.435 22.6908 16.256 23.2205 16.256V15.256ZM21.2449 16.1306C20.745 16.7138 20.5365 17.5271 20.5365 18.486H21.5365C21.5365 17.6529 21.72 17.1129 22.0041 16.7814L21.2449 16.1306ZM20.5365 18.486C20.5365 19.4381 20.7461 20.2477 21.2416 20.8376L22.0073 20.1944C21.7189 19.851 21.5365 19.3072 21.5365 18.486H20.5365ZM21.2487 20.8458C21.7541 21.4217 22.4283 21.702 23.2205 21.702V20.702C22.6873 20.702 22.2976 20.525 22.0003 20.1862L21.2487 20.8458ZM28.0694 23.82H27.5694V24.32H28.0694V23.82ZM28.0694 21.104V20.604H27.5694V21.104H28.0694ZM28.8114 21.104V21.604H29.0705L29.2199 21.3923L28.8114 21.104ZM29.5394 19.396L29.0516 19.2861L29.5394 19.396ZM29.7634 14.972V14.472H29.2634V14.972H29.7634ZM34.7054 14.972H35.2054V14.472H34.7054V14.972ZM34.7054 21.104H34.2054V21.604H34.7054V21.104ZM35.8114 21.104H36.3114V20.604H35.8114V21.104ZM35.8114 23.82V24.32H36.3114V23.82H35.8114ZM34.8314 23.82H34.3314V24.32H34.8314V23.82ZM34.8314 22H35.3314V21.5H34.8314V22ZM29.0354 22V21.5H28.5354V22H29.0354ZM29.0354 23.82V24.32H29.5354V23.82H29.0354ZM29.9034 21.118L29.4703 20.8681L29.0377 21.618H29.9034V21.118ZM33.6274 21.118V21.618H34.1274V21.118H33.6274ZM33.6274 15.854H34.1274V15.354H33.6274V15.854ZM30.7574 15.854V15.354H30.2574V15.854H30.7574ZM30.5334 19.368L30.0447 19.2623L30.0436 19.2674L30.5334 19.368ZM28.5694 23.82V21.104H27.5694V23.82H28.5694ZM28.0694 21.604H28.8114V20.604H28.0694V21.604ZM29.2199 21.3923C29.5995 20.8545 29.8658 20.2222 30.0272 19.5059L29.0516 19.2861C28.9144 19.8951 28.6953 20.4015 28.4029 20.8157L29.2199 21.3923ZM30.0272 19.5059C30.1868 18.7975 30.2634 17.9749 30.2634 17.044H29.2634C29.2634 17.9238 29.1907 18.6691 29.0516 19.2861L30.0272 19.5059ZM30.2634 17.044V14.972H29.2634V17.044H30.2634ZM29.7634 15.472H34.7054V14.472H29.7634V15.472ZM34.2054 14.972V21.104H35.2054V14.972H34.2054ZM34.7054 21.604H35.8114V20.604H34.7054V21.604ZM35.3114 21.104V23.82H36.3114V21.104H35.3114ZM35.8114 23.32H34.8314V24.32H35.8114V23.32ZM35.3314 23.82V22H34.3314V23.82H35.3314ZM34.8314 21.5H29.0354V22.5H34.8314V21.5ZM28.5354 22V23.82H29.5354V22H28.5354ZM29.0354 23.32H28.0694V24.32H29.0354V23.32ZM29.9034 21.618H33.6274V20.618H29.9034V21.618ZM34.1274 21.118V15.854H33.1274V21.118H34.1274ZM33.6274 15.354H30.7574V16.354H33.6274V15.354ZM30.2574 15.854V17.226H31.2574V15.854H30.2574ZM30.2574 17.226C30.2574 17.9293 30.1862 18.6079 30.0447 19.2623L31.0221 19.4737C31.1793 18.7468 31.2574 17.9973 31.2574 17.226H30.2574ZM30.0436 19.2674C29.9119 19.9084 29.718 20.4388 29.4703 20.8681L30.3365 21.3679C30.6488 20.8265 30.8749 20.1903 31.0232 19.4686L30.0436 19.2674ZM38.421 21.692L38.1514 22.1132L38.1575 22.117L38.421 21.692ZM37.329 20.432L36.8756 20.643L36.8787 20.6494L37.329 20.432ZM37.329 16.526L36.8787 16.3086L36.8757 16.315L37.329 16.526ZM38.421 15.28L38.6845 15.705V15.705L38.421 15.28ZM41.697 15.336L41.4063 15.743L41.4158 15.7495L41.697 15.336ZM42.621 16.638V17.138H43.2746L43.1036 16.5071L42.621 16.638ZM42.453 16.638L41.9551 16.592L41.9046 17.138H42.453V16.638ZM42.607 14.972V14.472H42.1511L42.1091 14.926L42.607 14.972ZM43.699 14.972L44.1963 15.0234L44.2534 14.472H43.699V14.972ZM43.615 15.798L43.1175 15.7482L43.1167 15.7559L43.1162 15.7636L43.615 15.798ZM43.587 22V22.5H44.087V22H43.587ZM42.453 22H41.953V22.5H42.453V22ZM42.453 20.348V19.848H41.953V20.348H42.453ZM42.607 20.348L43.0896 20.4789L43.2606 19.848H42.607V20.348ZM41.683 21.65L41.9641 22.0635L41.683 21.65ZM41.879 20.516L42.2586 20.8414L42.2618 20.8376L41.879 20.516ZM41.879 16.456L41.4961 16.7776L41.4994 16.7814L41.879 16.456ZM38.687 16.456L38.3079 16.13L38.3074 16.1306L38.687 16.456ZM38.687 20.516L38.304 20.8377L38.3112 20.8458L38.687 20.516ZM40.059 21.626C39.5135 21.626 39.0615 21.5008 38.6845 21.267L38.1575 22.117C38.7138 22.4619 39.3538 22.626 40.059 22.626V21.626ZM38.6905 21.2709C38.3084 21.0263 38.0039 20.68 37.7793 20.2146L36.8787 20.6494C37.1767 21.2667 37.6003 21.7604 38.1515 22.1131L38.6905 21.2709ZM37.7823 20.221C37.5681 19.7609 37.451 19.1879 37.451 18.486H36.451C36.451 19.2961 36.5859 20.0204 36.8757 20.643L37.7823 20.221ZM37.451 18.486C37.451 17.7738 37.5684 17.1964 37.7823 16.737L36.8757 16.315C36.5855 16.9383 36.451 17.6676 36.451 18.486H37.451ZM37.7793 16.7434C38.0034 16.2792 38.3061 15.9395 38.6845 15.705L38.1575 14.855C37.6025 15.1991 37.1773 15.6902 36.8787 16.3086L37.7793 16.7434ZM38.6845 15.705C39.0615 15.4712 39.5135 15.346 40.059 15.346V14.346C39.3538 14.346 38.7138 14.5101 38.1575 14.855L38.6845 15.705ZM40.059 15.346C40.6035 15.346 41.0446 15.4844 41.4064 15.7429L41.9876 14.9291C41.4347 14.5342 40.7838 14.346 40.059 14.346V15.346ZM41.4158 15.7495C41.7826 15.9989 42.02 16.332 42.1384 16.7689L43.1036 16.5071C42.9234 15.8426 42.5447 15.3078 41.9781 14.9225L41.4158 15.7495ZM42.621 16.138H42.453V17.138H42.621V16.138ZM42.9509 16.684L43.1049 15.018L42.1091 14.926L41.9551 16.592L42.9509 16.684ZM42.607 15.472H43.699V14.472H42.607V15.472ZM43.2016 14.9205C43.1736 15.1918 43.1455 15.4677 43.1175 15.7482L44.1125 15.8478C44.1404 15.5683 44.1684 15.2935 44.1963 15.0234L43.2016 14.9205ZM43.1162 15.7636C43.0967 16.0453 43.087 16.3228 43.087 16.596H44.087C44.087 16.3466 44.0959 16.0921 44.1138 15.8324L43.1162 15.7636ZM43.087 16.596V22H44.087V16.596H43.087ZM43.587 21.5H42.453V22.5H43.587V21.5ZM42.953 22V20.348H41.953V22H42.953ZM42.453 20.848H42.607V19.848H42.453V20.848ZM42.1244 20.2171C42.006 20.654 41.7686 20.9871 41.4018 21.2365L41.9641 22.0635C42.5307 21.6782 42.9094 21.1434 43.0896 20.4789L42.1244 20.2171ZM41.4018 21.2365C41.0257 21.4923 40.5843 21.626 40.059 21.626V22.626C40.7657 22.626 41.407 22.4424 41.9641 22.0635L41.4018 21.2365ZM40.283 21.702C41.082 21.702 41.7599 21.4232 42.2586 20.8414L41.4994 20.1906C41.214 20.5235 40.828 20.702 40.283 20.702V21.702ZM42.2618 20.8376C42.7574 20.2477 42.967 19.4381 42.967 18.486H41.967C41.967 19.3072 41.7846 19.851 41.4961 20.1944L42.2618 20.8376ZM42.967 18.486C42.967 17.5271 42.7585 16.7138 42.2586 16.1306L41.4994 16.7814C41.7835 17.1129 41.967 17.6529 41.967 18.486H42.967ZM42.2618 16.1344C41.7643 15.5421 41.0856 15.256 40.283 15.256V16.256C40.8244 16.256 41.2096 16.4365 41.4961 16.7776L42.2618 16.1344ZM40.283 15.256C39.4873 15.256 38.8122 15.5436 38.3079 16.13L39.0661 16.782C39.3645 16.435 39.7533 16.256 40.283 16.256V15.256ZM38.3074 16.1306C37.8075 16.7138 37.599 17.5271 37.599 18.486H38.599C38.599 17.6529 38.7825 17.1129 39.0666 16.7814L38.3074 16.1306ZM37.599 18.486C37.599 19.4381 37.8086 20.2477 38.3041 20.8376L39.0698 20.1944C38.7814 19.851 38.599 19.3072 38.599 18.486H37.599ZM38.3112 20.8458C38.8166 21.4217 39.4908 21.702 40.283 21.702V20.702C39.7498 20.702 39.3601 20.525 39.0628 20.1862L38.3112 20.8458ZM47.3719 22H46.8719V22.5H47.3719V22ZM47.3719 15.882H47.8719V15.382H47.3719V15.882ZM44.8239 15.882H44.3239V16.382H44.8239V15.882ZM44.8239 14.972V14.472H44.3239V14.972H44.8239ZM51.0679 14.972H51.5679V14.472H51.0679V14.972ZM51.0679 15.882V16.382H51.5679V15.882H51.0679ZM48.5059 15.882V15.382H48.0059V15.882H48.5059ZM48.5059 22V22.5H49.0059V22H48.5059ZM47.8719 22V15.882H46.8719V22H47.8719ZM47.3719 15.382H44.8239V16.382H47.3719V15.382ZM45.3239 15.882V14.972H44.3239V15.882H45.3239ZM44.8239 15.472H51.0679V14.472H44.8239V15.472ZM50.5679 14.972V15.882H51.5679V14.972H50.5679ZM51.0679 15.382H48.5059V16.382H51.0679V15.382ZM48.0059 15.882V22H49.0059V15.882H48.0059ZM48.5059 21.5H47.3719V22.5H48.5059V21.5ZM52.245 22H51.745V22.5H52.245V22ZM52.245 14.972V14.472H51.745V14.972H52.245ZM53.379 14.972H53.879V14.472H53.379V14.972ZM53.379 17.492H52.879V17.992H53.379V17.492ZM57.537 18.08L57.2115 18.4597L57.22 18.4666L57.537 18.08ZM57.915 20.95L57.4903 20.686L57.4884 20.6893L57.915 20.95ZM56.991 21.734L57.1931 22.1914L57.1979 22.1892L56.991 21.734ZM53.379 21.188H52.879V21.688H53.379V21.188ZM56.697 20.838L57.0049 21.2321L57.0123 21.2261L56.697 20.838ZM56.697 18.654L56.3831 19.0432L56.39 19.0487L56.397 19.054L56.697 18.654ZM53.379 18.304V17.804H52.879V18.304H53.379ZM52.745 22V14.972H51.745V22H52.745ZM52.245 15.472H53.379V14.472H52.245V15.472ZM52.879 14.972V17.492H53.879V14.972H52.879ZM53.379 17.992H55.493V16.992H53.379V17.992ZM55.493 17.992C56.337 17.992 56.8809 18.1762 57.2116 18.4596L57.8624 17.7004C57.2784 17.1998 56.4597 16.992 55.493 16.992V17.992ZM57.22 18.4666C57.5499 18.7372 57.737 19.1292 57.737 19.718H58.737C58.737 18.8881 58.4574 18.1881 57.854 17.6934L57.22 18.4666ZM57.737 19.718C57.737 20.1169 57.6479 20.4326 57.4904 20.686L58.3396 21.214C58.6115 20.7767 58.737 20.2711 58.737 19.718H57.737ZM57.4884 20.6893C57.3425 20.928 57.1174 21.1273 56.7841 21.2788L57.1979 22.1892C57.6859 21.9673 58.0768 21.644 58.3416 21.2107L57.4884 20.6893ZM56.7889 21.2767C56.4698 21.4177 56.0444 21.5 55.493 21.5V22.5C56.1362 22.5 56.7095 22.405 57.1931 22.1913L56.7889 21.2767ZM55.493 21.5H52.245V22.5H55.493V21.5ZM53.379 21.688H55.395V20.688H53.379V21.688ZM55.395 21.688C56.0224 21.688 56.5838 21.561 57.0048 21.232L56.3892 20.444C56.2129 20.5817 55.9063 20.688 55.395 20.688V21.688ZM57.0123 21.2261C57.4597 20.8625 57.645 20.3307 57.645 19.732H56.645C56.645 20.1226 56.5316 20.3281 56.3817 20.4499L57.0123 21.2261ZM57.645 19.732C57.645 19.1356 57.4602 18.6014 56.997 18.254L56.397 19.054C56.5311 19.1546 56.645 19.3391 56.645 19.732H57.645ZM57.0109 18.2648C56.595 17.9294 56.0278 17.804 55.395 17.804V18.804C55.9195 18.804 56.2203 18.9119 56.3831 19.0432L57.0109 18.2648ZM55.395 17.804H53.379V18.804H55.395V17.804ZM52.879 18.304V21.188H53.879V18.304H52.879ZM63.579 22H63.079V22.5H63.579V22ZM63.579 14.972V14.472H63.079V14.972H63.579ZM68.787 15.448L68.4768 15.8403L68.487 15.848L68.787 15.448ZM68.927 17.954L69.2751 18.313L69.2752 18.3128L68.927 17.954ZM67.723 18.486H67.223V19.0458L67.7792 18.9828L67.723 18.486ZM67.723 18.318L67.7391 17.8183L67.223 17.8016V18.318H67.723ZM69.109 18.822L69.4473 18.4538L69.109 18.822ZM68.955 21.482L68.6497 21.086L68.6457 21.0891L68.955 21.482ZM64.657 21.23H64.157V21.73H64.657V21.23ZM68.157 20.922L68.4659 21.3152L68.4677 21.3137L68.157 20.922ZM68.157 19.116L67.848 19.5092L67.8548 19.5143L68.157 19.116ZM64.657 18.808V18.308H64.157V18.808H64.657ZM64.657 18.038H64.157V18.538H64.657V18.038ZM67.961 17.73L68.2768 18.1176L67.961 17.73ZM67.961 16.036L67.6451 16.4237L67.654 16.4307L67.961 16.036ZM64.657 15.728V15.228H64.157V15.728H64.657ZM64.079 22V14.972H63.079V22H64.079ZM63.579 15.472H66.967V14.472H63.579V15.472ZM66.967 15.472C67.7282 15.472 68.2024 15.6232 68.4769 15.8402L69.0971 15.0558C68.5689 14.6381 67.8298 14.472 66.967 14.472V15.472ZM68.487 15.848C68.748 16.0437 68.903 16.3384 68.903 16.82H69.903C69.903 16.0883 69.6473 15.4683 69.087 15.048L68.487 15.848ZM68.903 16.82C68.903 17.1348 68.7976 17.3827 68.5787 17.5952L69.2752 18.3128C69.691 17.9093 69.903 17.4012 69.903 16.82H68.903ZM68.5789 17.595C68.3626 17.8048 68.0699 17.9435 67.6667 17.9892L67.7792 18.9828C68.3654 18.9165 68.8754 18.7005 69.2751 18.313L68.5789 17.595ZM68.223 18.486V18.318H67.223V18.486H68.223ZM67.7069 18.8177C68.195 18.8335 68.5328 18.9716 68.7707 19.1902L69.4473 18.4538C68.9945 18.0377 68.4083 17.8398 67.7391 17.8183L67.7069 18.8177ZM68.7707 19.1902C69.0046 19.4052 69.127 19.6782 69.127 20.054H70.127C70.127 19.4218 69.904 18.8735 69.4473 18.4538L68.7707 19.1902ZM69.127 20.054C69.127 20.5186 68.965 20.843 68.6497 21.086L69.2602 21.878C69.841 21.4303 70.127 20.8027 70.127 20.054H69.127ZM68.6457 21.0891C68.3274 21.3397 67.8281 21.5 67.079 21.5V22.5C67.9538 22.5 68.7052 22.3149 69.2643 21.8749L68.6457 21.0891ZM67.079 21.5H63.579V22.5H67.079V21.5ZM64.657 21.73H67.023V20.73H64.657V21.73ZM67.023 21.73C67.5772 21.73 68.0826 21.6163 68.4659 21.3152L67.8481 20.5288C67.7087 20.6383 67.4581 20.73 67.023 20.73V21.73ZM68.4677 21.3137C68.8751 20.9907 69.063 20.5333 69.063 20.012H68.063C68.063 20.2746 67.9802 20.424 67.8463 20.5303L68.4677 21.3137ZM69.063 20.012C69.063 19.4909 68.8747 19.0329 68.4592 18.7177L67.8548 19.5143C67.9806 19.6098 68.063 19.7491 68.063 20.012H69.063ZM68.4659 18.7228C68.0826 18.4217 67.5772 18.308 67.023 18.308V19.308C67.4581 19.308 67.7087 19.3997 67.8481 19.5092L68.4659 18.7228ZM67.023 18.308H64.657V19.308H67.023V18.308ZM64.157 18.808V21.23H65.157V18.808H64.157ZM64.657 18.538H66.897V17.538H64.657V18.538ZM66.897 18.538C67.4233 18.538 67.9055 18.4202 68.2768 18.1176L67.6451 17.3424C67.5125 17.4505 67.2853 17.538 66.897 17.538V18.538ZM68.2768 18.1176C68.6603 17.8052 68.839 17.37 68.839 16.876H67.839C67.839 17.11 67.7657 17.2442 67.6451 17.3424L68.2768 18.1176ZM68.839 16.876C68.839 16.3822 68.6599 15.9462 68.268 15.6413L67.654 16.4307C67.7661 16.5178 67.839 16.6418 67.839 16.876H68.839ZM68.2768 15.6484C67.9055 15.3458 67.4233 15.228 66.897 15.228V16.228C67.2853 16.228 67.5125 16.3155 67.6451 16.4236L68.2768 15.6484ZM66.897 15.228H64.657V16.228H66.897V15.228ZM64.157 15.728V18.038H65.157V15.728H64.157ZM72.5616 21.692L72.3031 22.1201L72.3127 22.1256L72.5616 21.692ZM71.4136 20.432L70.9649 20.6526L70.9664 20.6556L71.4136 20.432ZM71.4136 16.54L70.9664 16.3164L71.4136 16.54ZM72.5616 15.294L72.8141 15.7256L72.8165 15.7241L72.5616 15.294ZM76.0896 15.294L75.8311 15.7221L75.8407 15.7276L76.0896 15.294ZM77.2516 16.54L76.8044 16.7636L76.8075 16.7697L77.2516 16.54ZM77.2516 20.432L76.8059 20.2054L76.8044 20.2084L77.2516 20.432ZM76.0896 21.692L76.3421 22.1236L76.3445 22.1221L76.0896 21.692ZM75.9216 20.516L76.3013 20.8414L76.3045 20.8376L75.9216 20.516ZM75.9076 16.456L75.5247 16.7777L75.5318 16.7858L75.9076 16.456ZM72.7436 16.456L73.1233 16.7814L73.1265 16.7776L72.7436 16.456ZM72.7436 20.516L72.3608 20.8376L72.364 20.8414L72.7436 20.516ZM74.3256 21.626C73.7272 21.626 73.2277 21.4978 72.8106 21.2584L72.3127 22.1256C72.9036 22.4648 73.5801 22.626 74.3256 22.626V21.626ZM72.8201 21.264C72.4103 21.0166 72.0913 20.6693 71.8608 20.2084L70.9664 20.6556C71.2773 21.2774 71.7236 21.7701 72.3032 22.12L72.8201 21.264ZM71.8624 20.2114C71.6319 19.7427 71.5076 19.1725 71.5076 18.486H70.5076C70.5076 19.2928 70.654 20.02 70.9649 20.6526L71.8624 20.2114ZM71.5076 18.486C71.5076 17.7887 71.6325 17.2204 71.8608 16.7636L70.9664 16.3164C70.6535 16.9423 70.5076 17.6713 70.5076 18.486H71.5076ZM71.8608 16.7636C72.0907 16.3039 72.4079 15.9631 72.8141 15.7256L72.3092 14.8624C71.726 15.2035 71.2779 15.6934 70.9664 16.3164L71.8608 16.7636ZM72.8165 15.7241C73.2326 15.4776 73.7299 15.346 74.3256 15.346V14.346C73.5773 14.346 72.8987 14.5131 72.3067 14.8639L72.8165 15.7241ZM74.3256 15.346C74.9324 15.346 75.4275 15.4783 75.8312 15.722L76.3481 14.866C75.7624 14.5124 75.0816 14.346 74.3256 14.346V15.346ZM75.8407 15.7276C76.2557 15.9659 76.5758 16.3064 76.8044 16.7636L77.6988 16.3164C77.3861 15.6909 76.9315 15.2008 76.3386 14.8604L75.8407 15.7276ZM76.8075 16.7697C77.043 17.225 77.1716 17.7911 77.1716 18.486H78.1716C78.1716 17.6689 78.0202 16.9377 77.6957 16.3103L76.8075 16.7697ZM77.1716 18.486C77.1716 19.1702 77.0435 19.7381 76.8059 20.2054L77.6973 20.6586C78.0197 20.0246 78.1716 19.2952 78.1716 18.486H77.1716ZM76.8044 20.2084C76.5752 20.6668 76.2533 21.0138 75.8347 21.2619L76.3445 22.1221C76.934 21.7728 77.3867 21.2798 77.6988 20.6556L76.8044 20.2084ZM75.8372 21.2604C75.4324 21.4971 74.9351 21.626 74.3256 21.626V22.626C75.0788 22.626 75.7575 22.4655 76.3421 22.1236L75.8372 21.2604ZM74.3256 21.702C75.1246 21.702 75.8026 21.4232 76.3013 20.8414L75.542 20.1906C75.2567 20.5235 74.8706 20.702 74.3256 20.702V21.702ZM76.3045 20.8376C76.8 20.2477 77.0096 19.4381 77.0096 18.486H76.0096C76.0096 19.3072 75.8272 19.851 75.5388 20.1944L76.3045 20.8376ZM77.0096 18.486C77.0096 17.5247 76.7953 16.7095 76.2834 16.1262L75.5318 16.7858C75.8226 17.1171 76.0096 17.6553 76.0096 18.486H77.0096ZM76.2905 16.1344C75.7944 15.5439 75.1214 15.256 74.3256 15.256V16.256C74.8552 16.256 75.2368 16.4348 75.5248 16.7776L76.2905 16.1344ZM74.3256 15.256C73.5299 15.256 72.8568 15.5439 72.3608 16.1344L73.1265 16.7776C73.4145 16.4348 73.796 16.256 74.3256 16.256V15.256ZM72.364 16.1306C71.8641 16.7138 71.6556 17.5271 71.6556 18.486H72.6556C72.6556 17.6529 72.8391 17.1129 73.1233 16.7814L72.364 16.1306ZM71.6556 18.486C71.6556 19.4381 71.8652 20.2477 72.3608 20.8376L73.1265 20.1944C72.838 19.851 72.6556 19.3072 72.6556 18.486H71.6556ZM72.364 20.8414C72.8612 21.4215 73.5335 21.702 74.3256 21.702V20.702C73.7924 20.702 73.41 20.5252 73.1233 20.1906L72.364 20.8414ZM79.5204 22H79.0204V22.5H79.5204V22ZM79.5204 14.972V14.472H79.0204V14.972H79.5204ZM85.6104 14.972H86.1104V14.472H85.6104V14.972ZM85.6104 22V22.5H86.1104V22H85.6104ZM84.4764 22H83.9764V22.5H84.4764V22ZM84.4764 15.868H84.9764V15.368H84.4764V15.868ZM80.6544 15.868V15.368H80.1544V15.868H80.6544ZM80.6544 22V22.5H81.1544V22H80.6544ZM80.0204 22V14.972H79.0204V22H80.0204ZM79.5204 15.472H85.6104V14.472H79.5204V15.472ZM85.1104 14.972V22H86.1104V14.972H85.1104ZM85.6104 21.5H84.4764V22.5H85.6104V21.5ZM84.9764 22V15.868H83.9764V22H84.9764ZM84.4764 15.368H80.6544V16.368H84.4764V15.368ZM80.1544 15.868V22H81.1544V15.868H80.1544ZM80.6544 21.5H79.5204V22.5H80.6544V21.5ZM87.9026 25.024H87.4026V25.524H87.9026V25.024ZM87.8606 15.798L87.3617 15.8313L87.3623 15.8404L87.3632 15.8494L87.8606 15.798ZM87.7906 14.972V14.472H87.2362L87.2932 15.0234L87.7906 14.972ZM88.8826 14.972L89.3804 14.926L89.3385 14.472H88.8826V14.972ZM89.0366 16.638V17.138H89.5849L89.5344 16.592L89.0366 16.638ZM88.8686 16.638L88.386 16.5071L88.2149 17.138H88.8686V16.638ZM89.7786 15.336L90.0636 15.7468L90.0692 15.7429L89.7786 15.336ZM93.0546 15.28L92.7872 15.7026L92.7911 15.705L93.0546 15.28ZM94.1466 16.526L94.5968 16.3086L94.1466 16.526ZM94.1466 20.432L93.6962 20.2146L93.6933 20.221L94.1466 20.432ZM93.0686 21.692L93.3321 22.117L93.3381 22.1131L93.0686 21.692ZM89.7926 21.65L90.0776 21.2392L89.7926 21.65ZM88.8826 20.348V19.848H88.2289L88.4 20.4789L88.8826 20.348ZM89.0366 20.348H89.5366V19.848H89.0366V20.348ZM89.0366 25.024V25.524H89.5366V25.024H89.0366ZM92.7886 20.516L92.4095 20.19L92.4089 20.1906L92.7886 20.516ZM92.7886 16.456L92.4056 16.7777L92.4128 16.7858L92.7886 16.456ZM89.5966 16.456L89.2175 16.13L89.2169 16.1306L89.5966 16.456ZM89.5966 20.516L89.2136 20.8377L89.2207 20.8458L89.5966 20.516ZM88.4026 25.024V16.596H87.4026V25.024H88.4026ZM88.4026 16.596C88.4026 16.3168 88.3876 16.0336 88.3579 15.7466L87.3632 15.8494C87.3895 16.1037 87.4026 16.3525 87.4026 16.596H88.4026ZM88.3595 15.7647C88.3404 15.4789 88.3166 15.1975 88.2879 14.9205L87.2932 15.0234C87.3206 15.2879 87.3434 15.5571 87.3617 15.8313L88.3595 15.7647ZM87.7906 15.472H88.8826V14.472H87.7906V15.472ZM88.3847 15.018L88.5387 16.684L89.5344 16.592L89.3804 14.926L88.3847 15.018ZM89.0366 16.138H88.8686V17.138H89.0366V16.138ZM89.3511 16.7689C89.4705 16.3288 89.7056 15.9952 90.0636 15.7468L89.4935 14.9252C88.9368 15.3115 88.5653 15.8459 88.386 16.5071L89.3511 16.7689ZM90.0692 15.7429C90.431 15.4844 90.8721 15.346 91.4166 15.346V14.346C90.6917 14.346 90.0408 14.5342 89.4879 14.9291L90.0692 15.7429ZM91.4166 15.346C91.9732 15.346 92.4229 15.472 92.7872 15.7025L93.3219 14.8575C92.7716 14.5093 92.1292 14.346 91.4166 14.346V15.346ZM92.7911 15.705C93.1695 15.9395 93.4722 16.2792 93.6963 16.7434L94.5968 16.3086C94.2983 15.6902 93.873 15.1991 93.318 14.855L92.7911 15.705ZM93.6963 16.7434C93.9172 17.201 94.0386 17.776 94.0386 18.486H95.0386C95.0386 17.6653 94.8986 16.9337 94.5968 16.3086L93.6963 16.7434ZM94.0386 18.486C94.0386 19.1856 93.9176 19.7562 93.6963 20.2146L94.5968 20.6494C94.8982 20.0251 95.0386 19.2984 95.0386 18.486H94.0386ZM93.6933 20.221C93.4781 20.6832 93.1795 21.0274 92.799 21.2709L93.3381 22.1131C93.891 21.7593 94.311 21.2634 94.5999 20.643L93.6933 20.221ZM92.8051 21.267C92.4292 21.5001 91.9729 21.626 91.4166 21.626V22.626C92.1295 22.626 92.7746 22.4626 93.332 22.117L92.8051 21.267ZM91.4166 21.626C90.88 21.626 90.4411 21.4914 90.0776 21.2392L89.5075 22.0608C90.0587 22.4432 90.7024 22.626 91.4166 22.626V21.626ZM90.0776 21.2392C89.7196 20.9908 89.4845 20.6572 89.3651 20.2171L88.4 20.4789C88.5793 21.1401 88.9508 21.6745 89.5075 22.0608L90.0776 21.2392ZM88.8826 20.848H89.0366V19.848H88.8826V20.848ZM88.5366 20.348V25.024H89.5366V20.348H88.5366ZM89.0366 24.524H87.9026V25.524H89.0366V24.524ZM91.1926 21.702C91.9916 21.702 92.6695 21.4232 93.1682 20.8414L92.4089 20.1906C92.1236 20.5235 91.7375 20.702 91.1926 20.702V21.702ZM93.1677 20.842C93.6752 20.2519 93.8906 19.4405 93.8906 18.486H92.8906C92.8906 19.3048 92.7046 19.8468 92.4095 20.19L93.1677 20.842ZM93.8906 18.486C93.8906 17.5247 93.6763 16.7095 93.1644 16.1262L92.4128 16.7858C92.7035 17.1171 92.8906 17.6553 92.8906 18.486H93.8906ZM93.1714 16.1344C92.6739 15.5421 91.9951 15.256 91.1926 15.256V16.256C91.734 16.256 92.1192 16.4365 92.4057 16.7776L93.1714 16.1344ZM91.1926 15.256C90.3969 15.256 89.7217 15.5436 89.2175 16.13L89.9757 16.782C90.2741 16.435 90.6629 16.256 91.1926 16.256V15.256ZM89.2169 16.1306C88.7171 16.7138 88.5086 17.5271 88.5086 18.486H89.5086C89.5086 17.6529 89.692 17.1129 89.9762 16.7814L89.2169 16.1306ZM88.5086 18.486C88.5086 19.4381 88.7182 20.2477 89.2137 20.8376L89.9794 20.1944C89.691 19.851 89.5086 19.3072 89.5086 18.486H88.5086ZM89.2207 20.8458C89.7261 21.4217 90.4004 21.702 91.1926 21.702V20.702C90.6594 20.702 90.2697 20.525 89.9724 20.1862L89.2207 20.8458ZM97.5675 21.692L97.309 22.1201L97.3186 22.1256L97.5675 21.692ZM96.4195 20.432L95.9707 20.6526L95.9723 20.6556L96.4195 20.432ZM96.4195 16.54L95.9723 16.3164L96.4195 16.54ZM97.5675 15.294L97.8199 15.7256L97.8224 15.7241L97.5675 15.294ZM101.095 15.294L100.837 15.7221L100.847 15.7276L101.095 15.294ZM102.257 16.54L101.81 16.7636L101.813 16.7697L102.257 16.54ZM102.257 20.432L101.812 20.2054L101.81 20.2084L102.257 20.432ZM101.095 21.692L101.348 22.1236L101.35 22.1221L101.095 21.692ZM100.927 20.516L101.307 20.8414L101.31 20.8376L100.927 20.516ZM100.913 16.456L100.531 16.7777L100.538 16.7858L100.913 16.456ZM97.7495 16.456L98.1291 16.7814L98.1323 16.7776L97.7495 16.456ZM97.7495 20.516L97.3666 20.8376L97.3699 20.8414L97.7495 20.516ZM99.3315 21.626C98.733 21.626 98.2335 21.4978 97.8164 21.2584L97.3186 22.1256C97.9095 22.4648 98.586 22.626 99.3315 22.626V21.626ZM97.8259 21.264C97.4162 21.0166 97.0972 20.6693 96.8667 20.2084L95.9723 20.6556C96.2831 21.2774 96.7294 21.7701 97.3091 22.12L97.8259 21.264ZM96.8682 20.2114C96.6378 19.7427 96.5135 19.1725 96.5135 18.486H95.5135C95.5135 19.2928 95.6598 20.02 95.9708 20.6526L96.8682 20.2114ZM96.5135 18.486C96.5135 17.7887 96.6383 17.2204 96.8667 16.7636L95.9723 16.3164C95.6593 16.9423 95.5135 17.6713 95.5135 18.486H96.5135ZM96.8667 16.7636C97.0965 16.3039 97.4138 15.9631 97.8199 15.7256L97.315 14.8624C96.7318 15.2035 96.2838 15.6934 95.9723 16.3164L96.8667 16.7636ZM97.8224 15.7241C98.2384 15.4776 98.7358 15.346 99.3315 15.346V14.346C98.5832 14.346 97.9045 14.5131 97.3126 14.8639L97.8224 15.7241ZM99.3315 15.346C99.9382 15.346 100.433 15.4783 100.837 15.722L101.354 14.866C100.768 14.5124 100.087 14.346 99.3315 14.346V15.346ZM100.847 15.7276C101.262 15.9659 101.582 16.3064 101.81 16.7636L102.705 16.3164C102.392 15.6909 101.937 15.2008 101.344 14.8604L100.847 15.7276ZM101.813 16.7697C102.049 17.225 102.177 17.7911 102.177 18.486H103.177C103.177 17.6689 103.026 16.9377 102.702 16.3103L101.813 16.7697ZM102.177 18.486C102.177 19.1702 102.049 19.7381 101.812 20.2054L102.703 20.6586C103.026 20.0246 103.177 19.2952 103.177 18.486H102.177ZM101.81 20.2084C101.581 20.6668 101.259 21.0138 100.841 21.2619L101.35 22.1221C101.94 21.7728 102.393 21.2798 102.705 20.6556L101.81 20.2084ZM100.843 21.2604C100.438 21.4971 99.9409 21.626 99.3315 21.626V22.626C100.085 22.626 100.763 22.4655 101.348 22.1236L100.843 21.2604ZM99.3315 21.702C100.131 21.702 100.808 21.4232 101.307 20.8414L100.548 20.1906C100.263 20.5235 99.8765 20.702 99.3315 20.702V21.702ZM101.31 20.8376C101.806 20.2477 102.015 19.4381 102.015 18.486H101.015C101.015 19.3072 100.833 19.851 100.545 20.1944L101.31 20.8376ZM102.015 18.486C102.015 17.5247 101.801 16.7095 101.289 16.1262L100.538 16.7858C100.828 17.1171 101.015 17.6553 101.015 18.486H102.015ZM101.296 16.1344C100.8 15.5439 100.127 15.256 99.3315 15.256V16.256C99.8611 16.256 100.243 16.4348 100.531 16.7776L101.296 16.1344ZM99.3315 15.256C98.5357 15.256 97.8627 15.5439 97.3666 16.1344L98.1323 16.7776C98.4203 16.4348 98.8019 16.256 99.3315 16.256V15.256ZM97.3699 16.1306C96.87 16.7138 96.6615 17.5271 96.6615 18.486H97.6615C97.6615 17.6529 97.845 17.1129 98.1291 16.7814L97.3699 16.1306ZM96.6615 18.486C96.6615 19.4381 96.8711 20.2477 97.3666 20.8376L98.1323 20.1944C97.8439 19.851 97.6615 19.3072 97.6615 18.486H96.6615ZM97.3699 20.8414C97.8671 21.4215 98.5393 21.702 99.3315 21.702V20.702C98.7983 20.702 98.4159 20.5252 98.1291 20.1906L97.3699 20.8414ZM105.73 21.678L105.475 22.1082L105.479 22.1102L105.73 21.678ZM104.554 20.404L104.105 20.6246L104.109 20.6306L104.554 20.404ZM104.568 16.498L105.011 16.7309L105.012 16.7277L104.568 16.498ZM105.744 15.266L105.505 14.827L105.501 14.8289L105.744 15.266ZM108.838 15.084L108.662 15.5517L108.665 15.553L108.838 15.084ZM109.902 15.756L110.349 15.9796L110.508 15.6628L110.262 15.4083L109.902 15.756ZM109.496 16.568L109.149 16.9275L109.639 17.4011L109.943 16.7916L109.496 16.568ZM108.572 15.966L108.387 16.4303L108.391 16.432L108.572 15.966ZM105.912 16.456L105.536 16.1262V16.1262L105.912 16.456ZM105.912 20.474L105.53 20.7963L105.912 20.474ZM108.558 21.006L108.388 20.5357L108.384 20.5373L108.558 21.006ZM109.496 20.404L109.942 20.1773L109.635 19.574L109.149 20.0447L109.496 20.404ZM109.902 21.202L110.261 21.5499L110.51 21.2935L110.348 20.9753L109.902 21.202ZM108.824 21.888L108.651 21.419L108.824 21.888ZM107.536 21.626C106.919 21.626 106.407 21.4933 105.982 21.2458L105.479 22.1102C106.08 22.4601 106.772 22.626 107.536 22.626V21.626ZM105.985 21.2479C105.567 21.0002 105.239 20.6483 105 20.1774L104.109 20.6306C104.429 21.261 104.885 21.7584 105.475 22.1081L105.985 21.2479ZM105.003 20.1834C104.773 19.7155 104.648 19.1409 104.648 18.444H103.648C103.648 19.2591 103.794 19.9912 104.106 20.6246L105.003 20.1834ZM104.648 18.444C104.648 17.7382 104.777 17.1741 105.011 16.7309L104.126 16.2651C103.799 16.8859 103.648 17.6191 103.648 18.444H104.648ZM105.012 16.7277C105.25 16.2686 105.574 15.9325 105.987 15.7031L105.501 14.8289C104.906 15.1595 104.447 15.6448 104.124 16.2683L105.012 16.7277ZM105.984 15.7049C106.412 15.4712 106.925 15.346 107.536 15.346V14.346C106.785 14.346 106.103 14.5008 105.505 14.8271L105.984 15.7049ZM107.536 15.346C107.924 15.346 108.298 15.4144 108.662 15.5517L109.015 14.6163C108.539 14.4363 108.045 14.346 107.536 14.346V15.346ZM108.665 15.553C109.034 15.6892 109.322 15.8752 109.543 16.1037L110.262 15.4083C109.923 15.0582 109.502 14.7961 109.012 14.615L108.665 15.553ZM109.455 15.5324L109.049 16.3444L109.943 16.7916L110.349 15.9796L109.455 15.5324ZM109.844 16.2085C109.52 15.8954 109.156 15.6566 108.753 15.5L108.391 16.432C108.66 16.5367 108.913 16.6993 109.149 16.9275L109.844 16.2085ZM108.758 15.5018C108.379 15.35 107.994 15.27 107.606 15.27V16.27C107.853 16.27 108.113 16.3206 108.387 16.4302L108.758 15.5018ZM107.606 15.27C106.765 15.27 106.051 15.5394 105.536 16.1262L106.288 16.7858C106.576 16.4579 106.991 16.27 107.606 16.27V15.27ZM105.536 16.1262C105.026 16.7079 104.81 17.5121 104.81 18.458H105.81C105.81 17.6492 105.996 17.1188 106.288 16.7858L105.536 16.1262ZM104.81 18.458C104.81 19.3978 105.027 20.2002 105.53 20.7963L106.295 20.1517C105.994 19.7958 105.81 19.2542 105.81 18.458H104.81ZM105.53 20.7963C106.043 21.4046 106.759 21.688 107.606 21.688V20.688C106.998 20.688 106.584 20.4954 106.295 20.1517L105.53 20.7963ZM107.606 21.688C107.981 21.688 108.357 21.614 108.732 21.4747L108.384 20.5373C108.106 20.6406 107.848 20.688 107.606 20.688V21.688ZM108.728 21.4763C109.139 21.3281 109.51 21.0862 109.844 20.7633L109.149 20.0447C108.904 20.2818 108.65 20.4413 108.388 20.5357L108.728 21.4763ZM109.051 20.6307L109.457 21.4287L110.348 20.9753L109.942 20.1773L109.051 20.6307ZM109.543 20.8541C109.311 21.0938 109.017 21.2836 108.651 21.419L108.998 22.357C109.49 22.175 109.915 21.9076 110.261 21.5499L109.543 20.8541ZM108.651 21.419C108.273 21.5585 107.903 21.626 107.536 21.626V22.626C108.029 22.626 108.516 22.5348 108.998 22.357L108.651 21.419Z" fill="white" mask="url(#path-2-outside-1_128_5337)"/>
<path d="M121 12V22L125.917 18.2753C126.488 17.8422 126.774 17.6256 126.877 17.3607C126.966 17.1286 126.966 16.8714 126.877 16.6393C126.774 16.3744 126.488 16.1578 125.917 15.7247L121 12Z" fill="#2D2D2D" fill-opacity="0.3"/>
</svg>
