<svg width="33" height="32" viewBox="0 0 33 32" fill="none" xmlns="http://www.w3.org/2000/svg">
<path d="M16.5999 29.3337C23.9637 29.3337 29.9333 23.3641 29.9333 16.0003C29.9333 8.63653 23.9637 2.66699 16.5999 2.66699C9.23614 2.66699 3.2666 8.63653 3.2666 16.0003C3.2666 23.3641 9.23614 29.3337 16.5999 29.3337Z" stroke="white" stroke-width="2" stroke-linecap="round" stroke-linejoin="round"/>
<path d="M12.7197 11.9998C13.0332 11.1087 13.6519 10.3573 14.4663 9.87863C15.2807 9.39999 16.2383 9.22503 17.1693 9.38473C18.1003 9.54443 18.9448 10.0285 19.5532 10.7512C20.1615 11.4738 20.4945 12.3885 20.4931 13.3331C20.4931 15.9998 16.4931 17.3331 16.4931 17.3331" stroke="white" stroke-width="2" stroke-linecap="round" stroke-linejoin="round"/>
<circle cx="16.5996" cy="22.5996" r="1" fill="white"/>
</svg>
