<svg width="705" height="731" viewBox="0 0 705 731" fill="none" xmlns="http://www.w3.org/2000/svg">
<path d="M60.2117 203.298L58.5116 199.214C57.2749 195.817 62.508 191.988 74.2106 187.729C81.5091 185.072 85.8224 185.569 87.1506 189.218C87.3796 189.847 87.4141 190.333 87.254 190.677C88.1594 195.905 88.891 213.38 89.4489 243.103C90.0068 272.826 90.7896 289.072 91.7972 291.84C92.759 294.483 94.4983 295.346 97.015 294.43C98.9025 293.743 100.166 292.713 100.807 291.34C101.927 288.937 103.328 285.933 105.009 282.329C106.689 278.725 110.467 266.591 116.341 245.927C122.17 225.137 126.495 207.46 129.317 192.895C129.967 187.243 137.025 181.967 150.489 177.066C153.886 175.83 155.975 176.281 156.753 178.42L156.737 182.487C155.756 191.537 155.583 206.919 156.219 228.634C156.854 250.348 157.791 262.904 159.027 266.302C160.218 269.574 162.072 270.751 164.588 269.835C166.476 269.148 167.74 268.118 168.38 266.745C169.501 264.342 170.621 261.939 171.742 259.537C174.703 253.186 180.064 236.201 187.824 208.58C195.664 180.788 200.383 160.474 201.981 147.637C202.357 144.365 203.266 141.968 204.707 140.446C207.304 137.791 212.52 134.894 220.356 131.757L224.131 130.383C230.674 128.002 234.335 127.881 235.114 130.02C235.434 130.901 235.235 132.113 234.514 133.658C226.442 149.849 215.558 176.326 201.863 213.09C188.248 249.681 179.429 275.763 175.406 291.335C174.606 294.619 173.909 297.01 173.315 298.509C172.72 300.008 171.565 301.925 169.85 304.259C166.579 308.585 159.596 312.694 148.9 316.587C142.734 318.831 139.101 318.443 138.002 315.423L137.813 313.141C137.697 310.475 137.616 305.945 137.568 299.549C137.521 293.154 137.479 287.754 137.443 283.349C137.408 278.945 137.361 274.117 137.302 268.865C137.013 258.283 136.479 251.922 135.7 249.783C134.922 247.643 133.589 246.917 131.701 247.604C129.688 248.337 127.972 250.671 126.555 254.607C120.919 270.054 114.678 290.495 107.833 315.93C106.679 320.198 105.684 323.338 104.85 325.352C103.969 327.24 101.579 329.678 97.6784 332.665C93.8237 335.778 88.5618 338.548 81.8925 340.976C75.3491 343.357 71.5278 343.038 70.4286 340.018L70.2392 337.736C70.0176 323.423 69.205 302.985 67.8014 276.42C66.5236 249.809 65.1679 230.423 63.7342 218.262C62.5309 211.432 61.3567 206.444 60.2117 203.298ZM211.437 292.97C208.039 292.64 204.755 291.056 201.585 288.22C198.541 285.337 196.08 281.317 194.202 276.158C191.271 268.104 190.782 258.734 192.735 248.048C194.814 237.316 199.427 227.086 206.575 217.36C213.848 207.587 222.77 200.777 233.34 196.93C238.248 195.144 242.819 194.977 247.052 196.428C251.286 197.88 253.883 199.927 254.845 202.57C255.761 205.086 256.116 207.237 255.911 209.022C255.706 210.807 255.694 211.951 255.878 212.454C256.427 213.964 257.897 214.284 260.288 213.414C262.679 212.544 264.389 211.565 265.419 210.478C266.448 209.391 267.088 208.801 267.34 208.71C268.347 208.343 269.331 209.481 270.293 212.124C271.209 214.641 271.05 218.119 269.815 222.558C268.535 226.872 266.368 230.51 263.315 233.474C263.178 234.664 263.012 236.363 262.818 238.572C262.579 240.654 261.647 244.555 260.025 250.276C258.356 255.871 256.275 261.117 253.783 266.015C251.37 270.741 247.584 275.61 242.426 280.622C237.44 285.715 232.429 289.177 227.396 291.009C222.363 292.841 217.043 293.495 211.437 292.97ZM241.712 245.185C241.346 244.178 240.596 243.881 239.464 244.293C237.828 244.888 236.078 245.953 234.213 247.487C232.475 248.974 231.48 249.764 231.228 249.856C230.473 250.131 229.889 249.702 229.477 248.569C227.691 243.662 227.918 238.805 230.159 233.999C230.994 231.985 232.549 229.994 234.825 228.026C237.056 225.931 238.611 223.94 239.492 222.052C240.452 219.993 240.291 217.201 239.009 213.678C237.451 209.399 234.408 208.084 229.878 209.733C221.824 212.665 216.232 221.184 213.102 235.291C209.925 249.273 209.963 260.731 213.215 269.665C214.314 272.685 216.259 274.898 219.051 276.305C221.969 277.665 224.875 277.819 227.769 276.765C234.313 274.384 238.676 269.732 240.859 262.81C243.122 255.716 243.407 249.841 241.712 245.185ZM286.694 265.579C283.296 265.248 280.012 263.664 276.843 260.828C273.798 257.946 271.338 253.925 269.46 248.766C266.528 240.713 266.039 231.343 267.993 220.656C270.072 209.924 274.685 199.695 281.833 189.968C289.106 180.196 298.028 173.386 308.598 169.538C313.506 167.752 318.076 167.585 322.31 169.037C326.543 170.488 329.141 172.536 330.103 175.178C331.019 177.695 331.374 179.846 331.169 181.63C330.963 183.415 330.952 184.559 331.135 185.063C331.685 186.573 333.155 186.893 335.546 186.022C337.937 185.152 339.647 184.174 340.676 183.086C341.706 181.999 342.346 181.41 342.598 181.318C343.605 180.952 344.589 182.09 345.551 184.732C346.467 187.249 346.307 190.727 345.073 195.167C343.793 199.48 341.626 203.119 338.572 206.083C338.435 207.273 338.27 208.972 338.076 211.18C337.836 213.262 336.905 217.164 335.282 222.885C333.614 228.48 331.533 233.726 329.04 238.623C326.628 243.349 322.842 248.218 317.684 253.231C312.697 258.323 307.687 261.786 302.654 263.618C297.62 265.45 292.301 266.103 286.694 265.579ZM316.97 217.793C316.603 216.787 315.854 216.489 314.721 216.901C313.086 217.497 311.335 218.561 309.471 220.095C307.733 221.583 306.737 222.373 306.486 222.464C305.731 222.739 305.147 222.31 304.735 221.178C302.949 216.27 303.176 211.413 305.417 206.608C306.252 204.594 307.807 202.603 310.083 200.634C312.313 198.54 313.869 196.549 314.749 194.661C315.71 192.601 315.549 189.809 314.266 186.286C312.709 182.008 309.665 180.693 305.135 182.342C297.082 185.273 291.49 193.792 288.359 207.9C285.183 221.881 285.221 233.339 288.472 242.273C289.572 245.293 291.517 247.507 294.309 248.913C297.227 250.274 300.133 250.427 303.027 249.374C309.571 246.992 313.934 242.34 316.117 235.418C318.38 228.324 318.664 222.449 316.97 217.793ZM383.044 202.294C387.561 193.953 391.145 185.594 393.797 177.219C396.403 168.717 397.408 163.649 396.813 162.013C396.172 160.251 394.89 159.079 392.968 158.496C391.046 157.913 388.511 158.194 385.366 159.339C378.067 161.996 372.2 169.76 367.765 182.632C363.33 195.504 362.395 205.464 364.959 212.511C366.333 216.286 368.342 217.692 370.984 216.73C374.508 215.448 378.528 210.636 383.044 202.294ZM403.765 225.748L403.387 225.885C397.347 228.083 393.091 225.785 390.617 218.99L389.621 215.077L387.613 213.671C386.858 213.946 386.074 214.73 385.262 216.023C378.242 230.406 370.642 239.086 362.463 242.063C359.946 242.979 357.252 242.819 354.38 241.585C351.679 240.43 349.459 237.462 347.718 232.68C344.238 223.117 344.383 210.595 348.154 195.114C354.05 170.595 366.939 154.717 386.821 147.48C389.589 146.473 392.266 145.997 394.852 146.054C397.517 145.939 399.102 145.789 399.605 145.606C400.235 145.377 400.961 144.044 401.784 141.607C402.561 139.044 404.497 129.29 407.593 112.345C414.823 73.09 418.86 49.5322 419.705 41.6722C420.458 35.1278 426.434 29.8175 437.633 25.7413C441.031 24.5047 443.096 24.8931 443.829 26.9065C444.104 27.6615 442.818 32.5471 439.972 41.5632C437.252 50.5336 433.555 64.0634 428.881 82.1527C424.333 100.196 420.614 118.365 417.725 136.66C408.596 179.314 404.36 208.003 405.017 222.727C405.063 224.42 404.646 225.427 403.765 225.748ZM140.048 455.536C140.964 458.053 141.777 459.894 142.487 461.061C143.322 462.182 143.855 463.057 144.084 463.686C145.137 466.581 139.498 470.272 127.166 474.76C114.96 479.203 108.33 479.977 107.277 477.083L107.585 474.406C110.947 470.332 115.268 455.578 120.546 430.143C125.778 404.583 130.237 376.311 133.924 345.329C134.677 338.784 134.16 333.058 132.374 328.151L131.275 325.131C130.084 321.859 136.221 317.773 149.685 312.872C156.48 310.399 160.336 310.421 161.252 312.938C161.618 313.944 161.481 315.134 160.841 316.507C156.315 330.695 151.225 356.061 145.573 392.604C139.875 429.022 138.033 449.999 140.048 455.536ZM210.438 449.796C206.915 451.078 204.855 450.901 204.26 449.266L204.225 447.996C207.653 433.922 210.172 420.679 211.781 408.265C213.345 395.726 213.554 387.883 212.409 384.737C212.043 383.73 211.517 383.067 210.83 382.747C210.098 382.301 209.205 382.198 208.153 382.439C203.245 384.225 197.784 389.775 191.769 399.09C185.88 408.359 181.003 417.473 177.138 426.432C173.4 435.346 170.799 442.491 169.336 447.869C167.828 453.12 164.053 456.845 158.013 459.044C154.742 460.235 152.808 460.012 152.213 458.376C151.022 455.105 152.997 441.346 158.138 417.102C163.234 392.732 167.52 379.059 170.997 376.083C172.678 374.046 175.155 372.432 178.426 371.241C181.824 370.005 183.775 370.079 184.278 371.463C184.736 372.721 184.257 376.102 182.84 381.605C181.423 387.109 180.943 390.49 181.401 391.748C182.019 392.663 182.706 392.983 183.461 392.708C184.342 392.388 185.005 391.861 185.451 391.129C198.808 369.88 211.023 357.24 222.096 353.209C226.752 351.515 230.065 353.373 232.034 358.784C233.317 362.307 233.445 370.882 232.419 384.508C231.519 398.089 229.058 411.881 225.035 425.886C221.092 439.719 216.226 447.689 210.438 449.796ZM290.867 274.739L299.978 270.996C301.237 270.538 301.958 270.56 302.141 271.064C302.324 271.567 302.427 272.242 302.45 273.088C302.473 273.935 302.251 275.085 301.782 276.538C301.439 277.945 300.862 279.296 300.05 280.589C297.9 284.079 294.56 286.648 290.03 288.297C285.626 289.9 282.4 291.217 280.352 292.247C278.431 293.231 276.898 294.502 275.754 296.058C274.611 297.614 273.879 298.736 273.559 299.422C273.238 300.109 272.816 301.688 272.29 304.159C271.765 306.63 271.388 308.335 271.159 309.273C267.879 321.013 263.446 342.505 257.861 373.752C252.401 404.952 250.412 428.264 251.892 443.685C251.973 445.081 251.006 446.145 248.993 446.878C247.105 447.565 243.868 446.891 239.279 444.856C234.691 442.821 231.778 440.105 230.542 436.707C229.305 433.31 230.715 421.325 234.77 400.753C238.951 380.136 243.247 359.833 247.657 339.844C252.022 319.73 253.883 308.792 253.242 307.031C252.555 305.143 251.388 304.285 249.74 304.457C248.047 304.504 245.313 305.214 241.538 306.588L235.309 308.855C233.673 309.45 232.581 308.993 232.031 307.483C231.481 305.973 231.601 304.148 232.39 302.009C233.259 299.697 234.911 297.386 237.347 295.074C239.909 292.716 242.471 290.359 245.033 288.001C247.721 285.598 250.717 281.301 254.022 275.111C257.452 268.874 260.425 261.38 262.939 252.627C264.528 247.203 269.16 243.095 276.836 240.301C279.479 239.339 281.098 239.676 281.693 241.312C282.059 242.319 280.9 247.942 278.214 258.183C275.529 268.423 274.575 274.613 275.354 276.752C276.087 278.765 278.341 279.085 282.116 277.711C283.671 277.287 286.589 276.297 290.867 274.739ZM296.583 421.434C289.285 424.09 283.135 423.835 278.135 420.667C273.18 417.625 269.558 412.959 267.268 406.667C264.932 400.249 263.889 393.076 264.138 385.148C264.341 377.093 265.643 368.924 268.043 360.64C270.569 352.311 274.932 344.524 281.13 337.28C287.409 329.865 295.079 324.508 304.139 321.211C308.291 319.699 311.918 319.875 315.019 321.739C318.074 323.477 320.243 326.108 321.526 329.632C324.182 336.93 324.076 344.664 321.206 352.834C318.337 361.003 314.352 367.869 309.251 373.431C304.15 378.992 299.238 382.918 294.513 385.207C289.869 387.325 286.981 389.374 285.849 391.354C284.717 393.333 284.906 396.399 286.418 400.552C287.929 404.704 290.018 407.507 292.684 408.959C295.35 410.411 297.764 411.171 299.927 411.239C302.089 411.307 303.307 411.719 303.582 412.474C304.223 414.236 303.784 415.963 302.262 417.657C300.741 419.351 298.848 420.61 296.583 421.434ZM304.934 341.014C303.514 337.113 301.043 335.804 297.519 337.087C292.486 338.919 288.169 344.48 284.568 353.771C281.092 363.016 280.385 370.47 282.446 376.133C282.95 377.517 284.271 377.82 286.411 377.041C291.57 375.163 296.522 370.368 301.268 362.656C306.139 354.897 307.362 347.684 304.934 341.014ZM384.491 350.107C382.101 350.977 379.841 350.446 377.712 348.513C375.538 346.454 374.039 344.292 373.214 342.027C372.344 339.636 372.114 336.656 372.525 333.086C371.93 331.45 371.003 330.862 369.744 331.32C364.837 333.106 360.314 338.101 356.174 346.305C351.989 354.384 348.903 362.347 346.914 370.196C344.88 377.919 343.246 385.568 342.013 393.142C341.248 397.696 337.531 401.186 330.861 403.614C327.464 404.85 325.49 404.714 324.941 403.204C323.704 399.806 325.267 384.916 329.63 358.532C334.072 331.976 338.032 317.211 341.509 314.235C343.774 311.844 346.605 310.029 350.002 308.793C353.526 307.51 355.562 307.624 356.112 309.134C356.616 310.518 356.176 313.813 354.793 319.019C353.411 324.225 352.925 327.395 353.338 328.527C353.75 329.66 354.396 330.066 355.277 329.745C355.78 329.562 356.89 328.303 358.605 325.969C362.631 319.801 367.868 313.049 374.319 305.714L375.193 302.83C376.839 297.956 380.494 294.489 386.156 292.427C391.945 290.321 395.251 290.4 396.075 292.665C396.053 293.386 395.79 294.621 395.287 296.372C390.293 313.58 387.1 330.845 385.709 348.167C385.527 349.231 385.121 349.878 384.491 350.107ZM408.253 371.384C404.855 371.054 401.571 369.47 398.401 366.634C395.357 363.751 392.896 359.731 391.018 354.571C388.087 346.518 387.598 337.148 389.551 326.462C391.63 315.73 396.243 305.5 403.391 295.774C410.664 286.001 419.586 279.191 430.156 275.344C435.064 273.558 439.634 273.391 443.868 274.842C448.101 276.294 450.699 278.341 451.661 280.984C452.577 283.5 452.932 285.651 452.727 287.436C452.521 289.221 452.51 290.365 452.693 290.868C453.243 292.378 454.713 292.698 457.104 291.828C459.495 290.958 461.205 289.979 462.235 288.892C463.264 287.805 463.904 287.215 464.156 287.124C465.163 286.757 466.147 287.895 467.109 290.538C468.025 293.055 467.866 296.533 466.631 300.972C465.351 305.286 463.184 308.924 460.13 311.888C459.994 313.078 459.828 314.777 459.634 316.985C459.395 319.068 458.463 322.969 456.84 328.69C455.172 334.285 453.091 339.531 450.598 344.429C448.186 349.155 444.4 354.024 439.242 359.036C434.255 364.129 429.245 367.591 424.212 369.423C419.179 371.255 413.859 371.909 408.253 371.384ZM438.528 323.599C438.162 322.592 437.412 322.295 436.28 322.707C434.644 323.302 432.894 324.367 431.029 325.901C429.291 327.388 428.296 328.178 428.044 328.27C427.289 328.544 426.705 328.116 426.293 326.983C424.507 322.076 424.734 317.219 426.975 312.413C427.81 310.399 429.365 308.408 431.641 306.44C433.872 304.345 435.427 302.354 436.307 300.466C437.268 298.406 437.107 295.615 435.824 292.092C434.267 287.813 431.224 286.498 426.694 288.147C418.64 291.078 413.048 299.598 409.917 313.705C406.741 327.687 406.779 339.145 410.031 348.079C411.13 351.099 413.075 353.312 415.867 354.719C418.785 356.079 421.691 356.233 424.585 355.179C431.129 352.798 435.492 348.146 437.675 341.223C439.938 334.13 440.223 328.255 438.528 323.599ZM524.869 299.013C522.478 299.884 520.218 299.352 518.09 297.42C515.915 295.361 514.416 293.199 513.592 290.934C512.721 288.543 512.492 285.563 512.902 281.993C512.307 280.357 511.38 279.768 510.122 280.226C505.214 282.013 500.691 287.008 496.552 295.212C492.367 303.29 489.28 311.254 487.292 319.103C485.258 326.826 483.624 334.475 482.39 342.049C481.625 346.603 477.908 350.093 471.239 352.521C467.841 353.757 465.868 353.621 465.318 352.111C464.081 348.713 465.644 333.822 470.007 307.439C474.45 280.883 478.41 266.118 481.887 263.142C484.151 260.75 486.982 258.936 490.38 257.7C493.903 256.417 495.94 256.531 496.489 258.041C496.993 259.425 496.554 262.72 495.171 267.926C493.788 273.132 493.303 276.301 493.715 277.434C494.127 278.566 494.774 278.972 495.654 278.652C496.158 278.469 497.267 277.21 498.983 274.875C503.008 268.708 508.246 261.956 514.696 254.621L515.571 251.737C517.217 246.863 520.871 243.395 526.534 241.334C532.322 239.228 535.628 239.307 536.453 241.572C536.43 242.292 536.167 243.528 535.664 245.279C530.67 262.487 527.477 279.752 526.087 297.074C525.904 298.138 525.498 298.784 524.869 299.013ZM206.312 597.071C199.643 599.499 195.273 600.804 193.202 600.988C191.177 601.297 189.404 601.515 187.883 601.642C186.533 601.848 185.646 601.957 185.223 601.968C184.799 601.98 184.21 602.123 183.455 602.398C181.945 602.948 180.698 603.829 179.715 605.042C176.639 610.294 171.515 614.226 164.342 616.836C160.567 618.21 158.359 618.016 157.718 616.255C157.122 614.619 158.418 604.671 161.604 586.41C164.917 568.104 168.492 547.778 172.329 525.433C176.293 503.043 178.525 487.837 179.026 479.817C179.653 471.751 179.05 465.201 177.218 460.168L176.668 458.658C175.34 455.009 185.183 449.36 206.198 441.711C237.405 430.353 256.879 435.307 264.619 456.573C270.206 471.925 271.144 490.75 267.433 513.049C265.548 524.708 262.423 535.892 258.055 546.602C253.688 557.312 246.993 567.302 237.969 576.571C229.07 585.795 218.518 592.629 206.312 597.071ZM244.916 509.915C246.275 499.161 246.729 489.447 246.281 480.775C245.912 471.932 244.766 464.867 242.842 459.582C240.873 454.171 237.811 450.654 233.658 449.031C229.63 447.362 223.967 447.855 216.669 450.512C211.635 452.344 208.25 455.571 206.512 460.194C202.203 473.02 197.439 495.56 192.22 527.813C186.955 559.94 185.147 578.269 186.796 582.799C188.628 587.832 194.892 588.403 205.588 584.509C213.138 581.761 219.789 576.348 225.541 568.269C231.294 560.19 235.621 551.134 238.524 541.099C241.382 530.939 243.512 520.544 244.916 509.915ZM298.807 570.674C291.509 573.33 285.359 573.075 280.358 569.907C275.404 566.865 271.781 562.198 269.491 555.907C267.156 549.489 266.112 542.316 266.362 534.387C266.565 526.333 267.867 518.164 270.267 509.88C272.793 501.55 277.155 493.764 283.354 486.52C289.633 479.104 297.303 473.748 306.363 470.45C310.515 468.939 314.142 469.115 317.243 470.979C320.298 472.717 322.467 475.348 323.749 478.871C326.406 486.17 326.299 493.904 323.43 502.073C320.561 510.243 316.576 517.108 311.475 522.67C306.374 528.232 301.461 532.158 296.737 534.447C292.093 536.565 289.204 538.614 288.072 540.593C286.94 542.573 287.13 545.639 288.641 549.792C290.153 553.944 292.242 556.746 294.908 558.199C297.574 559.651 299.988 560.411 302.15 560.479C304.313 560.547 305.531 560.958 305.806 561.714C306.447 563.475 306.007 565.203 304.486 566.897C302.965 568.59 301.072 569.849 298.807 570.674ZM307.158 490.254C305.738 486.353 303.267 485.044 299.743 486.326C294.71 488.158 290.392 493.72 286.791 503.011C283.316 512.256 282.609 519.71 284.67 525.372C285.174 526.757 286.495 527.059 288.634 526.281C293.794 524.403 298.746 519.608 303.492 511.895C308.363 504.137 309.585 496.923 307.158 490.254ZM319.626 560.959C319.26 559.952 319.723 559.071 321.015 558.315C329.824 555.109 338.168 548.866 346.048 539.585C354.054 530.259 356.934 522.512 354.69 516.346C353.041 511.816 348.441 508.574 340.89 506.62C333.292 504.54 328.647 501.172 326.952 496.516C324.433 489.595 326.662 482.015 333.638 473.776C340.569 465.411 349.634 459.19 360.833 455.114C362.846 454.381 364.191 453.963 364.866 453.86C365.495 453.631 365.924 453.047 366.152 452.109C366.461 450.999 366.809 449.803 367.198 448.522C367.586 447.24 368.65 445.856 370.389 444.368C372.081 442.754 374.312 441.444 377.08 440.436C383.498 438.1 387.05 437.876 387.737 439.764C387.875 440.141 387.926 440.479 387.892 440.776C386.52 443.27 384.514 448.917 381.873 457.716C379.233 466.515 377.817 474.369 377.624 481.279C377.533 482.595 376.607 483.574 374.845 484.215C373.209 484.81 371.23 484.462 368.907 483.17C366.538 481.752 365.033 480.162 364.392 478.4C363.705 476.513 363.31 474.448 363.206 472.205C363.057 469.837 362.913 468.464 362.776 468.087C362.181 466.451 360.876 465.999 358.863 466.732C354.962 468.152 351.308 470.836 347.899 474.784C344.571 478.561 343.709 482.651 345.312 487.055C346.869 491.333 351.595 494.53 359.49 496.644C362.522 497.535 365.485 499.022 368.38 501.103C371.401 503.139 373.461 505.667 374.561 508.687C377.675 517.243 374.892 527.02 366.212 538.018C357.577 549.141 346.717 557.084 333.63 561.847C326.205 564.549 321.538 564.253 319.626 560.959ZM399.2 532.851C397.439 533.492 395.076 533.07 392.112 531.583C389.195 530.222 387.163 527.969 386.018 524.823C385.377 523.062 386.238 512.702 388.6 493.744C391.043 474.614 391.36 462.172 389.55 456.418C388.909 454.656 389.446 452.608 391.162 450.274C394.318 446.417 399.86 443.046 407.788 440.161C409.298 439.611 410.985 439.353 412.85 439.387C414.795 439.249 415.951 439.684 416.317 440.69C416.5 441.194 416.472 441.703 416.232 442.218C413.649 449.998 410.626 463.425 407.166 482.498C403.705 501.571 401.432 516.862 400.349 528.372C400.59 530.991 400.207 532.485 399.2 532.851ZM407.905 428.148C402.368 430.163 398.672 429.015 396.817 424.702L396.749 424.513C395.375 420.738 396.077 416.991 398.856 413.272C401.761 409.507 405.038 406.961 408.687 405.632C414.224 403.617 417.92 404.766 419.774 409.079C421.149 412.854 420.469 416.664 417.736 420.508C414.957 424.228 411.68 426.774 407.905 428.148ZM430.452 618.095C435.863 616.125 441.174 604.288 446.384 582.583C451.767 560.959 455.827 539.815 458.567 519.152C461.307 498.489 462.356 487.277 461.715 485.515C461.028 483.628 460.181 482.867 459.174 483.234C458.168 483.6 456.835 485.225 455.177 488.109C453.473 490.866 451.672 493.944 449.774 497.343C448.002 500.696 445.32 504.094 441.729 507.539C438.309 511.064 434.523 513.582 430.37 515.093C425.211 516.971 421.234 514.072 418.441 506.396C416.196 500.23 415.376 492.691 415.98 483.778C416.538 474.74 418.469 465.558 421.772 456.233C425.03 446.782 430.548 437.862 438.325 429.474C446.102 421.086 455.465 414.899 466.412 410.914C469.181 409.907 472.384 409.311 476.022 409.127C483.298 408.759 487.898 411.217 489.822 416.502C491.196 420.277 490.813 422.554 488.674 423.333C488.045 423.562 486.815 423.51 484.984 423.179C479.355 421.808 471.822 422.84 462.384 426.275C452.946 429.71 445.478 437.772 439.979 450.462C434.559 462.979 433.476 473.705 436.727 482.64C437.872 485.786 439.766 486.878 442.409 485.916C446.435 484.45 450.942 479.604 455.927 471.376C460.993 462.977 465.011 451.896 467.982 438.132C467.718 436.232 470.292 434.298 475.703 432.329C481.114 430.359 484.163 430.318 484.85 432.206C485.353 433.59 484.247 444.253 481.53 464.195C478.893 483.966 476.501 500.298 474.354 513.193C472.252 526.213 469.305 540.824 465.511 557.025C461.844 573.18 457.952 587.351 453.837 599.537C449.722 611.722 444.743 622.512 438.899 631.907C433.102 641.427 426.994 647.355 420.577 649.691C415.291 651.615 411.046 648.172 407.84 639.364C404.634 630.556 403.641 619.801 404.861 607.102C406.128 594.528 408.761 582.383 412.762 570.666C416.683 559.121 421.588 548.715 427.477 539.446C433.366 530.177 439.079 524.535 444.616 522.52L445.182 522.314C446.692 521.764 447.608 521.93 447.928 522.811C448.249 523.692 447.792 524.784 446.556 526.089C442.645 530.22 438.465 537.727 434.018 548.608C429.743 559.57 426.594 571.475 424.573 584.323C422.426 597.218 422.681 607.314 425.337 614.612L425.406 614.801C426.505 617.821 428.187 618.919 430.452 618.095ZM546.791 477.422C543.267 478.705 541.208 478.528 540.612 476.892L540.578 475.622C544.006 461.549 546.525 448.306 548.134 435.892C549.698 423.352 549.907 415.51 548.762 412.364C548.396 411.357 547.869 410.694 547.183 410.374C546.45 409.928 545.558 409.825 544.505 410.066C539.598 411.852 534.137 417.402 528.121 426.717C522.232 435.985 517.355 445.099 513.491 454.059C509.753 462.972 507.152 470.118 505.689 475.495C504.18 480.747 500.406 484.472 494.366 486.671C491.094 487.861 489.161 487.639 488.565 486.003C487.375 482.731 489.35 468.973 494.491 444.729C499.586 420.358 503.873 406.685 507.35 403.71C509.031 401.673 511.507 400.059 514.779 398.868C518.177 397.631 520.127 397.705 520.631 399.089C521.089 400.348 520.61 403.729 519.193 409.232C517.775 414.736 517.296 418.116 517.754 419.375C518.372 420.29 519.059 420.61 519.814 420.335C520.694 420.015 521.358 419.488 521.804 418.756C535.16 397.506 547.375 384.866 558.449 380.836C563.105 379.141 566.417 380.999 568.387 386.41C569.669 389.934 569.798 398.509 568.772 412.135C567.872 425.715 565.411 439.508 561.388 453.513C557.445 467.346 552.579 475.316 546.791 477.422ZM565.174 471.586C564.808 470.58 565.271 469.699 566.563 468.943C575.372 465.737 583.716 459.494 591.596 450.213C599.602 440.886 602.482 433.14 600.238 426.974C598.589 422.444 593.989 419.202 586.438 417.248C578.84 415.168 574.194 411.8 572.5 407.144C569.981 400.223 572.21 392.643 579.186 384.404C586.117 376.038 595.182 369.818 606.381 365.741C608.394 365.009 609.739 364.591 610.413 364.487C611.043 364.258 611.472 363.675 611.7 362.737C612.009 361.627 612.357 360.431 612.746 359.15C613.134 357.868 614.198 356.484 615.937 354.996C617.629 353.382 619.86 352.071 622.628 351.064C629.046 348.728 632.598 348.504 633.285 350.391C633.423 350.769 633.474 351.106 633.44 351.404C632.068 353.898 630.062 359.545 627.421 368.344C624.781 377.142 623.365 384.997 623.172 391.907C623.081 393.223 622.155 394.201 620.393 394.843C618.757 395.438 616.778 395.09 614.455 393.798C612.086 392.38 610.581 390.79 609.94 389.028C609.253 387.141 608.858 385.076 608.754 382.833C608.605 380.465 608.461 379.092 608.324 378.715C607.729 377.079 606.424 376.627 604.411 377.36C600.51 378.78 596.855 381.464 593.447 385.412C590.119 389.188 589.257 393.279 590.86 397.683C592.417 401.961 597.143 405.158 605.037 407.272C608.07 408.163 611.033 409.65 613.928 411.731C616.949 413.767 619.009 416.294 620.109 419.315C623.223 427.871 620.44 437.648 611.76 448.645C603.125 459.768 592.265 467.712 579.178 472.475C571.753 475.177 567.085 474.881 565.174 471.586Z" fill="#313131"/>
</svg>
